v 0.1962783 0.2534016 0.3139226
v -0.83350474 0.54508734 0.41783592
v -0.16052748 0.18053605 0.04229109
v -0.086346895 0.01394873 0.5217755
v -0.00092288386 0.88607335 -0.290647
v 0.49186966 0.13674574 0.44823936
v 0.32056135 0.18270592 0.4572472
v 0.06399987 0.6830729 -0.12995088
v -0.2111559 0.8063302 0.014938533
v -0.8436731 -0.01993291 0.033000473
v -0.31426704 0.80302954 -0.027115952
v -0.59139544 0.5990691 -0.15413424
v -0.77018625 0.73680484 -0.3262973
v -0.7090376 0.05714726 0.7073256
v 0.4260001 0.04785664 0.5231892
v -0.25670838 0.7765317 0.04657806
v 0.20396554 -0.8015934 0.6892405
v -0.43336564 -0.8581486 0.52878475
v -0.20284498 0.19894642 0.05037844
v -0.41957423 0.613942 0.1513856
v -0.03788822 0.62895966 -0.033848863
v -0.5015135 0.6145601 0.13540804
v -0.07032889 -0.9260371 0.6606596
v -0.27289635 0.75837123 -0.1289647
v -0.22694868 -0.7325934 0.5593353
v -0.24538605 0.7619612 0.045289293
v -0.6427998 0.66622746 -0.15275343
v 0.85666376 -0.44096246 0.32757902
v 0.6855465 0.043891832 0.33289194
v -0.10694021 0.92042184 -0.07841509
v 0.00879777 -0.50830185 0.7290652
v -0.22510833 0.0183803 0.4888342
v -0.7580749 0.3571308 0.67506796
v 0.57999027 -0.8336934 0.5138263
v 0.26361203 -0.60248137 0.7626052
v -0.5988648 0.6621245 -0.23599441
v -0.9169562 0.18302152 0.035400324
v -0.30466738 0.74213064 0.07094543
v -0.6065051 0.5572908 -0.039450865
v -0.7144555 0.24992995 0.7072993
v 0.5239036 0.1918585 0.30733442
v -0.7646237 0.4895013 -0.08968489
v -0.90610725 0.11337781 0.025511352
v -0.3338083 0.75188816 0.058663175
v -0.29346332 0.15273643 0.37357217
v 0.7440783 -0.06569249 0.012966042
v -0.79780173 0.22953396 0.72677475
v -0.80799323 0.30822507 0.6983834
v -0.53645366 0.5174192 0.4814043
v -0.62274563 0.5071752 0.5296788
v -0.1790562 0.18586197 0.28298008
v -0.6711517 0.65182793 -0.09299868
v -0.35361257 0.2407117 0.29582784
v -0.8227478 0.19116153 0.71370345
v -0.15333426 0.88186526 -0.041002568
v -0.59969324 0.54674435 0.48128584
v -0.7989064 0.78105545 -0.51621324
v 0.24152826 0.1592064 0.4848233
v -0.95659107 0.052728824 0.5557295
v 0.9124286 -0.72132385 0.3572452
v 0.5088466 0.17669626 0.36852252
v 0.054781612 0.21867181 0.04505263
v 0.07812327 0.15249977 0.4695427
v 0.42277822 0.16006112 0.45527473
v -0.77150124 0.5807508 0.35049355
v -0.2008377 -0.5153365 0.571494
v -0.25924638 0.055503495 0.46416426
v 0.027678976 0.16804339 0.41679707
v -0.09255381 0.62266076 0.00838975
v -0.65071625 0.5719534 0.42543682
v 0.19909239 0.10618458 0.5321642
v 0.1565777 0.14413622 0.4978552
v 0.7068163 -0.40175965 0.5311132
v 0.057122357 0.11277289 0.50457495
v 0.52410585 -0.0063092303 0.5264734
v -0.18753806 0.84078383 -0.0062727756
v 0.19805318 -0.19000635 0.7197489
v -0.6061133 -0.5968393 0.4164974
v 0.7957218 -0.11729409 0.12419492
v 0.7379568 -0.030794993 0.3052402
v -0.79302824 0.69461894 -0.3454572
v -0.5741423 0.48083517 -0.029035905
v -0.029024962 0.1149953 0.461863
v 0.29787713 0.22060491 0.40456736
v -0.42350495 -0.534284 0.548078
v -0.23635179 0.10150309 0.43122295
v -0.784469 -0.5303545 0.26238513
v 0.4644382 0.21171537 0.32940045
v -0.31278107 0.22619377 0.041988634
v 0.4558511 0.15081647 0.4404412
v -0.8275213 0.5623274 0.36841735
v -0.14873335 -0.21197502 -0.2991684
v 0.35483932 -0.34183767 0.7514588
v 0.28692293 0.1180329 0.5132541
v 0.3286093 0.07476858 0.5369772
v -0.5728536 0.15676047 -0.08751501
v 0.14663607 -0.10656183 -0.28526863
v 0.1677237 -0.36838794 0.7832421
v 0.45907286 0.103252046 0.4886632
v -0.8870751 -0.038737435 0.3202739
v 0.18531097 0.2380027 0.36750996
v -0.73041993 0.12973663 0.7300229
v -0.73244506 0.4342044 0.61954767
v -0.46974248 0.6005156 -0.0048525427
v 0.5849734 0.11962413 0.38695917
v 0.099939495 0.24791794 0.17242593
v -0.3607988 -0.20964499 -0.26030353
v -0.3810309 0.6826259 0.10772676
v 0.021603521 0.060960896 0.52562857
v -0.73586404 0.69062114 -0.17642394
v -0.9989086 0.19892015 0.28066573
v -0.22186026 0.18412615 0.31237093
v -0.14852823 -0.14717583 0.5957412
v -0.77481514 0.45511335 0.5949304
v 0.7093421 -0.1042988 -0.099085204
v -0.53815556 -0.3099155 0.6093527
v -0.38175675 -0.17831868 0.5945191
v -0.66007924 0.5950451 0.30398113
v 0.39718714 -0.1272722 0.64367884
v -0.7070338 -0.15905268 -0.15696645
v -0.73820484 0.31593114 0.69442517
v -0.09882647 0.14174281 0.37081063
v -0.20629035 0.85372376 -0.021158831
v -0.7504872 0.7540448 -0.32448256
v -0.5728273 0.56798196 -0.22225253
v -0.7142056 0.39370173 0.64561146
v 0.44889456 0.23622747 0.20192197
v 0.035709046 -0.22357629 0.7200829
v 0.27258915 0.270589 0.1850633
v -0.99032146 0.08999662 0.2732621
v 0.07078544 0.06424842 0.53965986
v -0.7856641 0.16396682 0.7134667
v -0.108426176 0.58685255 -0.02732635
v -0.8434068 0.0682592 -0.0027090586
v -0.11591852 -0.38921165 0.66414344
v -0.26403472 -0.30002502 0.5973418
v -0.907882 -0.16108045 0.1110093
v 0.14323021 0.07737238 0.5444466
v 0.23367271 -0.027465934 0.59274286
v -0.75459003 0.18642737 0.7259595
v -0.7721982 0.2746393 0.71774054
v -0.56263584 0.58711565 0.3239563
v -0.2525266 0.21554203 0.22932707
v -0.6808829 0.09012809 0.72105443
v -0.22605516 0.8535265 -0.03616334
v -0.6903248 0.15114532 0.7284317
v 0.8332714 -0.2563821 0.12574832
v -0.4035046 0.08761647 0.4431502
v -0.32320923 0.09612461 0.43084157
v -0.5174516 0.5860635 0.19858178
v -0.093053535 0.17982593 0.02954852
v 0.49113315 0.21450318 0.26175565
v 0.28815904 0.26747236 0.12265222
v -0.13233335 0.9160032 -0.075337954
v -0.76574147 0.07482124 0.70494545
v -0.28938675 0.07424259 0.4547092
v 0.31885177 0.26772228 0.24909186
v -0.84732294 -0.20508821 -0.039596807
v -0.8927861 0.047573883 0.05691409
v -0.64168197 0.6054865 -0.05371887
v -0.51002437 -0.12153982 0.5809866
v 0.548008 0.16416408 0.3549514
v -0.24614877 0.21172851 0.032520454
v -0.7280134 0.59280956 0.21668969
v 0.7554006 -0.03628523 0.20067273
v 0.61821723 0.11237837 0.35063815
v -0.66545767 0.59804344 0.0019197724
v 0.64147997 0.10275233 0.30166665
v -0.7066147 -0.23953877 0.56694216
v 0.5184687 -0.35542724 0.6787088
v 0.12299196 0.765525 -0.27043512
v -0.7190975 0.5913762 0.32266754
v -0.6104896 0.55317473 0.0010650543
v 0.1806032 0.17403992 0.46801728
v -0.7903324 0.37122792 0.6633905
v 0.38281456 0.25960854 0.21645303
v 0.38466883 0.20101109 0.42047912
v -0.6176893 -0.13070074 0.5717958
v -0.4869956 0.57038844 0.24037333
v -0.9982116 0.14496467 0.33777726
v 0.52038014 -0.12247031 0.6065535
v 0.33768293 0.13060461 0.50090605
v 0.06367114 0.23372887 0.10634593
v -0.02334403 0.1840341 0.3380402
v -0.6720065 0.70680904 -0.19858202
v -0.29481947 -0.0681343 0.54493886
v 0.3428904 0.26859012 0.18148644
v 0.2517592 0.06946904 0.55607134
v -0.7142845 0.7183814 -0.21164031
v 0.16746612 0.25927982 0.16614008
v -0.10478353 0.18592766 0.25657442
v -0.19984014 -0.05289726 0.5393607
v 0.009862823 -0.09812264 0.59961927
v -0.79142565 -0.37220657 0.4725194
v -0.7188608 0.09490164 0.72527564
v -0.6592244 0.3146949 -0.08176841
v -0.74998087 -0.021050684 -0.07287888
v -0.6131065 0.6242387 -0.1377753
v -0.796855 0.5244415 0.4901097
v -0.6994714 -0.03769622 0.5313123
v -0.38878378 -0.03702411 0.54087955
v 0.121817626 -0.018625475 0.5882136
v -0.09632792 0.19168751 0.087738305
v 0.40267143 -0.044226337 0.5735628
v 0.6395733 0.058988284 0.4050671
v 0.58944446 0.14797613 0.2960909
v -0.036704715 -0.02271415 0.5632646
v 0.30063868 -0.0017001014 0.57470524
v -0.44058836 0.6518543 0.12177123
v -0.4716361 0.045588255 0.4860594
v 0.41504586 0.24368364 0.2867806
v -0.597175 0.0066700056 0.5248461
v 0.18878433 0.00474689 -0.23803441
v -0.50173044 -0.032392785 0.53691804
v -0.16351256 0.06473501 0.4599562
v -0.4137224 0.031175531 0.48966265
v -0.3338609 0.6688707 0.10374226
v -0.3044964 0.01575035 0.49959102
v -0.08671509 0.064143226 0.47620985
v -0.03348292 0.04003879 0.5258916
v -0.5851096 0.5371182 -0.09361674
v -0.5230865 0.044233695 0.506061
v -0.5025125 -0.039025668 -0.20774081
v -0.7261252 -0.34919563 -0.15136883
v -0.7076174 0.31315634 -0.074180655
v -0.014112577 0.7806083 -0.24823752
v -0.48911276 0.49977165 0.00207763
v -0.44633502 0.08811619 0.47192287
v -0.57252854 -0.1721066 -0.21548386
v 0.59064114 0.07855595 0.43377408
v -0.5998905 0.47205085 0.5339263
v -0.14085469 0.19084594 0.12992437
v -0.1712449 0.55982876 -0.0336122
v 0.27430525 -0.0039914707 -0.23646143
v -0.5058399 0.44838044 0.44524103
v -0.42927915 0.31318274 0.3906018
v -0.018097086 0.7527298 -0.1433773
v -0.512849 0.162415 0.5568998
v -0.4712679 0.1621258 0.5219859
v -0.32123667 0.60786664 0.0962597
v -0.2069084 0.6632949 -0.1534504
v -0.90686154 -0.34705606 0.22051622
v -0.6307278 0.16202061 0.69346523
v -0.35459888 0.603606 0.12258655
v -0.1543337 0.8091707 -0.055783544
v -0.21266821 0.571046 0.049549993
v 0.64955175 -0.19646113 0.55899537
v -0.5470659 0.21318814 0.56400096
v -0.24217738 0.61767673 0.08289908
v -0.25707662 0.66996205 0.031100221
v -0.0488161 0.9525478 -0.13120013
v -0.07928519 0.9194355 -0.10142802
v -0.34908888 0.51916826 0.12838581
v -0.6465739 0.041958746 0.6595375
v 0.027323857 0.64781713 -0.099613264
v -0.5995223 0.7479037 -0.50775754
v -0.30678454 0.5116857 0.08756743
v -0.22180766 0.70861065 -0.0074036834
v 0.7599121 -0.1692688 0.4056062
v 0.46947077 -0.59729624 0.68807364
v -0.28407407 0.5020466 0.048918806
v -0.3767965 0.19669773 0.38272473
v -0.009449693 -0.241076 -0.41731554
v -0.14372142 0.6621641 0.00018394557
v -0.6623148 0.44164753 0.59386516
v -0.4962139 0.5122906 0.42062372
v -0.30861244 0.5887462 0.11273698
v -0.65794885 0.15573475 0.7174249
v -0.0006204246 0.978204 -0.19749063
v -0.53967553 0.11745438 0.5610685
v 0.8020825 -0.16129315 0.2614269
v -0.10462573 0.6388881 0.021040257
v -0.409922 0.24255273 0.42576554
v -0.6031912 0.1497645 0.6591694
v -0.6192345 0.382182 0.57107574
v -0.40784425 0.5008236 0.17610797
v -0.67625403 0.30743602 0.66254896
v -0.5073522 0.19968292 0.546327
v 0.54974383 0.07249363 0.468872
v -0.5255258 0.36563906 0.4609819
v -0.60507166 0.20028771 0.6413112
v -0.15514901 0.7766895 -0.06892064
v -0.24645121 0.6419127 0.049024004
v -0.49572736 0.345335 0.44827875
v -0.6488357 0.4004609 0.60472727
v -0.079298384 0.86637425 -0.12626883
v 0.066840336 0.7261795 -0.15782943
v 0.0048237815 0.91696334 -0.21020694
v -0.57611483 0.3280688 0.51047945
v -0.1902076 0.636955 0.056730088
v -0.6360274 0.27688798 0.6259386
v -0.30594295 0.640808 0.07436454
v 0.6494885 -0.019341126 0.45998248
v 0.023733871 0.6864394 -0.09376146
v 0.0058363574 0.658666 -0.06034658
v 0.78183264 -0.17830792 -0.024433345
v 0.37452996 0.1468451 0.48441565
v 0.68961346 -0.40379816 -0.19849129
v -0.17121863 0.61870253 0.05300851
v -0.52501297 0.39378053 0.4544594
v -0.6375396 0.11131313 0.70495856
v -0.65427995 0.071283795 0.7005006
v -0.5649371 0.4490773 0.5162262
v 0.35141182 0.030399742 0.55114007
v -0.5842285 0.3515025 0.5101901
v 0.03314939 0.8415991 -0.2174527
v -0.97223985 0.04867852 0.2516299
v -0.56230706 0.07846389 0.5493122
v -0.48894182 0.24342057 0.509125
v -0.29543588 0.7010493 0.077099815
v 0.096638836 0.72539043 -0.1831831
v -0.15800261 0.7026404 -0.04222554
v -0.6084053 0.0454304 0.586021
v -0.7875577 0.50726724 -0.0050498038
v -0.36504018 0.5512285 0.1462438
v -0.44754484 0.47049913 0.27685207
v -0.042819574 0.6125876 -0.062384866
v -0.9355769 0.35965565 0.35741046
v -0.45869628 0.27838716 0.46152103
v -0.2556564 0.58477485 0.08531875
v -0.9496214 0.31650966 0.3129627
v -0.5921714 0.2540723 0.575823
v -0.4442178 0.40435335 0.2975638
v -0.47860575 0.41583353 0.4089464
v 0.86379534 -0.4750929 0.150765
v -0.38558084 0.259385 0.36349908
v 0.09058978 0.79244363 -0.22993234
v -0.24079661 0.7278758 0.02414378
v -0.37239113 0.63289154 0.13045037
v -0.35813627 0.46796113 0.102164164
v -0.6042695 0.31015813 0.55315197
v -0.56274104 0.27264044 0.5396072
v -0.38803998 0.14597724 0.4070133
v -0.41030332 0.18229826 0.44574073
v -0.6943224 0.35672313 0.6571442
v -0.5800073 0.39184743 0.51396424
v -0.57636464 0.5998844 -0.20672204
v -0.4119997 0.12608086 0.4508036
v -0.14256424 0.8567351 -0.04610497
v -0.5242634 0.28483075 0.5133462
v -0.47854 0.12706716 0.5203421
v -0.020911282 0.7080978 -0.10351896
v 0.50613767 0.09792624 0.4785243
v -0.49345234 0.088011 0.51773834
v -0.5972999 0.6321552 -0.63171184
v -0.0025271827 0.86110103 -0.1962808
v 0.62237275 -0.07877371 0.51852083
v -0.78093 0.032990288 0.6611156
v -0.45686838 0.34843853 0.39955702
v -0.5872268 0.11762525 0.62271684
v -0.61887944 0.08507846 0.6687427
v 0.67999715 0.016158009 0.3932713
v -0.5734848 0.706717 -0.71708345
v -0.059704512 0.8268578 -0.14876892
v -0.44192967 0.19212145 0.48269296
v -0.17419057 0.72809947 -0.04752508
v -0.05610133 0.6766293 -0.051996175
v 0.07156135 0.8907943 -0.26967236
v -0.08683348 0.7792933 -0.12114029
v -0.39625886 0.4542849 0.13786712
v -0.06585883 0.65729845 -0.014044653
v -0.97652686 0.110300556 0.3803182
v -0.73614025 0.34935904 -0.059860118
v -0.97526443 0.13498364 0.41257578
v -0.77641946 0.61270595 -0.15801357
v -0.9806297 0.15806237 0.50813866
v -0.56776446 0.16682042 0.59414136
v -0.6550032 0.21614695 0.687324
v -0.029998073 0.9379511 -0.16018331
v -0.42583376 0.5485327 0.18324867
v -0.5480259 0.4181085 0.49402854
v -0.5295235 0.4644895 0.47244897
v -0.7572201 0.51189613 -0.19362447
v 0.532275 -0.84159887 -0.20683599
v 0.2902045 -0.9732293 -0.21615031
v 0.71344537 -0.9500948 0.10195267
v -0.9457421 0.03435786 0.5238796
v -0.9502132 0.0352521 0.16299728
v -0.5813223 0.86455953 -0.73252165
v 0.095258005 0.9056672 -0.31400192
v -0.5776534 0.541116 -0.26906744
v 0.09404829 0.7028773 -0.1845508
v -0.5790999 0.5533589 -0.35346562
v 0.11949403 0.87066126 -0.3439056
v -0.86201113 -0.0009932686 0.41841128
v 0.8296194 -0.57735586 -0.027700804
v -0.2204663 0.53894615 0.026103135
v 0.6447709 -0.16580372 -0.18399842
v 0.05408463 0.6657146 -0.14769055
v -0.39882314 0.33315796 0.11735268
v 0.11508861 0.83123684 -0.3454966
v 0.5066684 -0.110736184 -0.23025706
v -0.04663315 -0.0023181546 -0.23114218
v -0.46678367 0.5097921 0.3574894
v 1 -0.60127425 0.12924321
v 0.68562776 -0.687824 -0.14091153
v 0.036951475 -0.021023564 -0.24129324
v -0.58095413 0.8032268 -0.6663233
v -0.57874495 0.47873122 -0.07287888
v -0.40880424 0.41797704 0.14584927
v -0.8373347 0.027818926 0.63282937
v -0.44487533 0.5140002 0.2573108
v -0.59545887 0.48608217 -0.23738839
v -0.4360252 0.3539222 0.33901337
v -0.5678565 0.843243 -0.76947397
v -0.5831634 0.7415521 -0.5732984
v -0.26644933 -0.93453586 -0.18121779
v -0.52752155 -0.8487338 0.26354545
v -0.10290304 0.15845689 -0.03098213
v -0.46034002 0.43345487 0.34689033
v 0.12676607 0.81354976 -0.32337803
v -0.58826566 0.6302221 -0.5369775
v -0.89996034 -0.02024358 0.1588228
v -0.12395661 0.12669903 -0.09069746
v 0.54086906 -0.4716408 -0.31367502
v -0.57359 0.75749016 -0.6641272
v -0.94973975 0.022483263 0.24011028
v -0.9894272 0.18010212 0.37255958
v -0.9843513 0.12030798 0.5264307
v 0.11974383 0.8165612 -0.2903578
v -0.9226986 -0.22103354 0.31159538
v -0.24534658 0.5206015 0.0010650543
v -0.5726169 0.64375365 -0.3115032
v -0.76537323 0.55755377 -0.14177294
v -0.8524411 0.46936822 0.06830222
v -0.69843847 0.9205533 -0.70171064
v -0.88496166 0.17832689 -0.008100665
v -0.9663617 0.21596281 0.5072971
v -0.5797838 0.6919099 -0.6252815
v -0.69476956 0.47803423 -0.33497655
v -0.42119175 0.3433231 0.0535345
v -0.42287496 0.4017233 0.24209602
v -0.56639683 0.8105514 -0.7383604
v -0.7432151 0.51129127 -0.3371068
v -0.23393218 0.15539277 -0.081202894
v -0.30700815 0.19331814 -0.06444954
v -0.734983 0.7011677 -0.47501338
v 0.11244541 0.7658012 -0.29770875
v -0.9368525 0.12798767 0.07418042
v -0.57829773 0.69250166 -0.5063636
v -0.3957986 0.34847793 0.20202717
v -0.9333677 0.33506465 0.4283956
v -0.7350225 0.5980303 -0.30310026
v -0.390407 0.43679506 0.08374066
v -0.9689654 0.066602305 0.4991965
v -0.57497084 0.603961 -0.4164292
v 0.11353691 0.74086833 -0.22673675
v -0.14628576 0.5845643 0.0121901315
v -0.4809728 0.46779013 0.4018321
v 0.38874164 -0.24192451 -0.34558415
v -0.9532114 0.15410413 0.10806862
v -0.9823787 0.1211627 0.17535846
v 0.09327238 0.7038634 -0.21202157
v -0.43096238 0.4491037 0.21562457
v -0.9783942 0.12730394 0.4577732
v -0.5778638 0.53410697 -0.16510159
v -0.9561308 0.40698344 0.31360704
v -0.73205054 0.8828385 -0.6811568
v -0.57115716 0.6526432 -0.41986144
v -0.41306487 0.39549008 0.09746954
v -0.95489466 0.36694095 0.2562851
v -0.7116808 0.85551214 -0.67614645
v -0.75649685 0.52157474 -0.09077627
v -0.77179056 0.038368758 -0.032862555
v -0.054650206 -0.89736927 -0.2556437
v -0.8786101 0.37615922 0.060477808
v -0.59146124 0.7098863 -0.40472534
v -0.5688164 0.6018307 -0.3133442
v -0.34857604 0.46346375 0.05035217
v -0.60212606 0.90060437 -0.74446213
v -0.6408667 0.9162663 -0.71670204
v -0.6109367 0.8916228 -0.7070233
v -0.6053741 0.8141546 -0.6194821
v -0.68442035 0.91606903 -0.6713862
v -0.74868554 0.54282546 0.47987887
v 0.027126595 0.22874491 0.24725084
v -0.5757203 0.59120536 0.26500377
v -0.49543804 0.56239307 0.36146078
v -0.24909443 0.813221 0.016463965
v -0.73408884 0.9050361 -0.6401148
v -0.7982752 0.5828681 0.22697318
v -0.7123514 0.57262397 0.41695482
v -0.649651 0.87105584 -0.6346049
v -0.5423187 0.57432044 0.37466368
v -0.7764852 0.5577773 0.4341291
v -0.83058536 0.57441247 0.28687266
v -0.70862997 0.6301168 -0.0434749
v 0.06084381 0.9713001 -0.30813685
v -0.330455 0.17701185 0.3239826
v -0.66761434 0.5857742 0.049379
v -0.72868407 0.58311784 0.058741983
v -0.6556213 0.83303833 -0.56872225
v -0.5485914 0.5490588 0.4603376
v -0.06737107 0.19861768 0.24633034
v -0.71591514 0.8875725 -0.60610825
v -0.76613593 0.87425125 -0.5917614
v 0.42398804 0.22168328 0.3580549
v -0.17125805 0.13623288 0.36937726
v -0.4046224 0.33689252 0.28183603
v -0.32343274 0.23977792 0.14975499
v -0.61785376 0.563524 0.039871417
v -0.25340766 0.17326401 0.3475873
v 0.36615327 0.25470352 0.30025953
v 0.21747649 0.26461875 0.2430034
v 0.28876397 0.25929293 0.3062298
v -0.9775788 0.07849016 0.18420859
v -0.62337685 0.586537 0.3699953
v -0.89719135 0.41346654 0.13874811
v -0.6890229 0.587155 0.118667714
v 0.13481401 0.25320435 0.24972318
v -0.34125134 0.1974605 0.30131152
v -0.68231624 0.53106916 0.5107161
v 0.04109214 0.9676707 -0.26220295
v 0.014002636 0.99870527 -0.23486364
v -0.85772747 0.54585004 0.12885915
v -0.9213484 0.3674143 0.16778396
v -0.6502165 0.59300685 0.21558505
v 0.15451315 0.20207621 0.42533162
v -0.9259115 0.33146152 0.12185004
v -0.77417076 0.5963601 -0.2216476
v -0.9841671 0.09415212 0.33506826
v -0.06800232 0.20606071 0.17246544
v -0.6339891 0.7977036 -0.52614176
v -0.6680351 0.8077899 -0.48517853
v -0.7502899 0.9004992 -0.6612473
v -0.17743869 0.20173435 0.1595255
v 0.122913025 0.24292086 0.31751272
v 0.6925162 0.011607985 -0.0016176755
v -0.06526705 0.9493524 -0.2078398
v -0.56948715 0.58873296 0.17381988
v -0.32494506 0.22093363 0.24932866
v 0.6466218 0.059067212 -0.01395259
v -0.96495456 0.07955527 0.43299818
v -0.70680207 0.84092855 -0.52353793
v -0.67336094 0.55276704 0.4731985
v -0.28595456 0.20032725 0.2856891
v 0.67271185 0.07240157 0.08631807
v -0.7165201 0.4478412 -0.17801504
v -0.89687574 0.5325552 0.3681149
v -0.47743535 0.58097434 0.19370303
v 0.7241293 0.0015480217 0.07870417
v 0.65537983 0.08155415 0.050023444
v -0.934617 0.4270902 0.4345236
v -0.033601254 0.9849895 -0.16988829
v -0.6907587 0.66165125 -0.10012612
v -0.6914951 0.79318 -0.40300277
v -0.16352575 0.19187164 0.24608053
v -0.4749631 0.5513469 0.32379845
v 0.2206852 0.21693599 0.41227332
v 0.62420064 0.12129416 0.108226486
v 0.579424 0.13382646 0.027378647
v -0.75078964 0.7877753 -0.40452808
v -0.13492395 0.10469855 0.42088678
v 0.5181964 0.18315299 0.04231736
v -0.9718716 0.093599744 0.56966877
v -0.5035517 0.54778314 0.41748092
v -0.51192844 0.57876515 0.28194124
v -0.23823228 0.14397837 0.39173272
v -0.7334181 0.82197905 -0.47168645
v -0.6280583 0.58222365 0.12195524
v 0.715871 0.021181362 0.16582449
v 0.46092713 0.2084146 0.030784627
v -0.8209988 0.4203309 0.0077190367
v -0.9655201 0.4246968 0.2618082
v -0.9006499 0.5491245 0.23195714
v -0.62427104 0.74420846 -0.37400633
v -0.7874525 0.7586342 -0.4135228
v -0.7131536 0.47974378 0.5764017
v 0.4031186 0.23654306 0.04539449
v -0.82996726 -0.10473886 -0.037379745
v -0.7669118 0.57923853 0.1326464
v 0.5270992 0.13327408 0.43391868
v -0.7485672 0.5041243 0.5430263
v -0.099733844 0.94258 -0.15021542
v -0.652886 0.7718898 -0.3880508
v 0.46245256 0.18174589 0.4016611
v -0.5423976 0.59416413 0.1320152
v 0.57440054 0.16696502 0.15911783
v 0.49443394 0.20834891 0.10090179
v -0.9523829 0.4100737 0.36986384
v -0.37099725 0.2913795 0.24995984
v -0.07589246 0.95679533 -0.1239675
v 0.35523847 0.23533322 0.3718232
v 0.27389103 0.24703695 0.3545964
v -0.88099027 0.5568963 0.29582784
v 0.6734615 0.077122584 0.15009685
v 0.5599748 0.16737269 0.09197273
v -0.3870142 0.28890732 0.32865095
v -0.5944726 0.68737304 -0.3129103
v -0.6347518 0.7064804 -0.24397682
v -0.6597241 0.7399609 -0.28722787
v -0.71567845 0.7707193 -0.32737556
v -0.11897267 0.16033731 0.3126734
v -0.35165322 0.26555252 0.17442481
v 0.6258049 0.1252788 0.18958706
v 0.42098972 0.24489346 0.11902283
v 0.35185888 0.26116022 0.110369965
v 0.25385004 0.25764918 0.06187177
v -0.4482155 0.55297744 0.1978454
v -0.684131 0.7629738 -0.315948
v 0.49518347 0.21477938 0.1763973
v -0.9855479 0.20857245 0.20544627
v -0.5754968 0.5656806 0.43336642
v -0.36184466 0.1272907 0.3916538
v -0.93723387 0.3768956 0.41327277
v -0.46009016 0.5481645 0.24107032
v 0.04088174 0.22090736 0.3111742
v 0.68381065 0.061697282 0.2537865
v 0.5567267 0.17933947 0.23191772
v -0.23523402 0.2199342 0.15738201
v -0.2742377 0.22660144 0.09406356
v -0.20170093 0.8770392 -0.07971699
v -0.7384284 0.5975963 -0.0062727756
v -0.3737325 0.2865797 0.13464527
v -0.87625617 0.5545819 0.19425541
v 0.098230064 0.20865138 0.39047024
v 0.20026281 0.2587801 0.10205896
v -0.26741272 0.6529325 -0.13465865
v -0.7700021 0.25470352 -0.06363423
v -0.20525011 -0.35930383 -0.3245093
v -0.6388415 0.15436706 -0.089290366
v -0.84371835 -0.1715142 0.4335193
v 0.57228345 -0.30841 -0.27947268
v -0.44025964 0.69532907 0.050851893
v -0.79576343 0.10025384 0.69355726
v -0.7522099 0.64068973 -0.10942343
v -0.81155694 0.074347794 0.6690846
v -0.8425126 0.14222941 0.67701423
v -0.67920834 -0.6121688 0.087984085
v -0.9718322 0.18193 0.56421137
v -0.8887358 0.41533384 0.5518896
v -0.9349194 0.47677186 0.39204833
v -0.8896168 0.46892104 0.48583588
v -0.8542821 0.5070437 0.47155473
v -0.92614824 0.110445276 0.6401278
v -0.7805618 0.8235966 -0.5176072
v -0.79690754 0.48815987 0.54680043
v -0.8977568 0.27901834 0.6430603
v -0.9773027 0.12873732 0.57529706
v -0.9393905 0.23668766 0.59361535
v -0.85958165 0.14746328 -0.021198357
v -0.830033 0.25079793 0.7132169
v -0.79246277 0.8332751 -0.5850548
v -0.84019816 0.448262 0.5617523
v -0.957288 0.15478785 0.6079754
v -0.36479032 0.7514937 0.037543807
v -0.9138527 0.42691922 0.49742126
v -0.9028328 0.356013 0.5843313
v -0.860923 0.19147712 0.6911507
v -0.5845442 0.022246476 -0.15105712
v -0.9235181 0.06831186 0.6247814
v -0.86196184 0.29278663 0.67371356
v 0.34523445 0.020803258 -0.22107893
v -0.75833786 0.6912129 -0.20912857
v -0.9194153 0.20878285 0.63461787
v -0.8105641 -0.02962462 0.4990733
v -0.93069816 0.36115482 0.5230774
v -0.040505096 0.90377355 -0.25794223
v 0.13051063 0.012916452 -0.23255244
v -0.5542591 0.586892 0.0848453
v -0.89491636 0.13984926 0.66448206
v -0.7331025 0.51058114 -0.4009776
v -0.8613701 0.37121478 0.6182195
v -0.8918261 0.21442425 0.6664809
v -0.657344 -0.049014665 -0.14188471
v -0.7638741 0.6090239 -0.0909604
v -0.8654861 0.24327597 0.69172937
v -0.8233264 0.3680192 0.6506348
v -0.41920874 -0.3866188 -0.23848341
v -0.04575946 -0.09487081 -0.27732006
v -0.92084867 0.5117645 0.37033716
v -0.857951 0.12460808 0.6745551
v 0.048390564 0.8352345 -0.31369933
v -0.1535184 -0.078648746 -0.25853086
v -0.72923636 0.11988719 -0.07583768
v -0.3619104 -0.055879105 -0.23025438
v -0.9209144 0.03377933 0.10442598
v -0.78061444 0.7788725 -0.53916055
v -0.3347683 0.7693517 -0.06818413
v -0.77916783 0.86960924 -0.6325666
v -0.7535775 0.63454854 -0.32599497
v -0.7096819 0.5367501 -0.51846194
v -0.9366158 0.2296917 0.0876331
v -0.7712777 0.56077564 -0.002354061
v -0.6810012 0.75976527 -0.64509887
v -0.31313613 0.17155445 -0.0978643
v -0.39101192 0.18252179 -0.08271519
v -0.7239368 0.5731368 -0.3659191
v -0.81176734 0.5174061 0.03580798
v -0.7507765 0.53865683 -0.16143255
v -0.486599 -0.94185245 -0.078081615
v -0.9556048 0.49716786 0.3106745
v -0.27857727 0.8259504 -0.07176111
v -0.937681 0.35990557 0.476828
v -0.9766057 0.25165266 0.35902798
v -0.9723977 0.21790916 0.4190983
v -0.945032 0.07265149 0.102479756
v -0.7020679 0.4618857 -0.2557726
v -0.51529497 0.6276052 0.08258348
v -0.77999634 0.5987272 -0.19042888
v -0.7961185 0.55783 0.08029527
v -0.72546226 0.7583581 -0.56117404
v -0.7994587 0.7405658 -0.43906072
v 0.36489078 0.16375643 -0.101401746
v -0.22320485 -0.0023115873 -0.2138002
v 0.66229033 -0.0014897055 -0.07192541
v -0.6489409 0.7138709 -0.7015397
v -0.18952376 0.8751323 -0.12504587
v -0.31190726 -0.65145516 -0.14365168
v -0.9276079 0.5344751 0.2920012
v -0.7734606 0.8250035 -0.601624
v -0.79219973 0.6990111 -0.39066774
v -0.90349036 0.25693905 0.03984515
v -0.9425203 0.2857644 0.10572788
v -0.9717664 0.2748891 0.23077357
v -0.39850754 0.70583606 -0.038675077
v -0.55032885 -0.5733532 -0.10888673
v -0.9002554 0.36106277 0.087790966
v -0.98172116 0.26133123 0.2897919
v -0.9592606 0.2902092 0.3525186
v 0.5279933 0.08751128 -0.10384769
v -0.17662252 -0.57656455 -0.27148053
v -0.9455843 0.324939 0.21391502
v -0.5685271 0.78636813 -0.7832421
v -0.6277164 0.7170532 -0.74333113
v -0.08158653 0.907482 -0.21841262
v 0.028980754 0.945999 -0.31454092
v 0.40984908 -0.10880638 -0.24986595
v -0.93117166 0.3347359 0.3691406
v 0.2736371 -0.13305134 -0.2800445
v -0.94735956 0.28239793 0.43660128
v -0.9528564 0.36165455 0.29826066
v -0.99813265 0.19861768 0.31980082
v -0.94683355 0.2649476 0.5293895
v -0.3517321 0.14641118 -0.12428321
v -0.27435112 -0.07870961 -0.24193196
v -0.62035227 0.6249356 -0.7033019
v -0.7768403 0.67795753 -0.24508134
v -0.39771855 0.7343327 -0.005365398
v -0.7704361 0.5584086 -0.09153905
v -0.649822 0.60882664 -0.68202466
v -0.48837638 0.6503025 0.045946874
v -0.6352515 0.64907956 -0.7196476
v -0.787229 0.6533271 -0.287754
v 0.00019488981 0.113561936 -0.118260294
v 0.55036193 -0.021175584 -0.16059753
v -0.658133 0.6410973 -0.68500984
v -0.6908639 0.06661544 -0.07677133
v -0.676517 0.6356268 -0.62200713
v -0.7938041 0.8164823 -0.53392667
v -0.85313797 0.52168 0.08325408
v -0.9087241 0.29849383 0.05937329
v -0.72204316 0.54261506 -0.44166455
v -0.7392437 0.8039632 -0.5974555
v -0.74491143 0.5658252 -0.22166075
v -0.9628637 0.27500743 0.16774443
v 0.17799078 -0.23987906 -0.41528162
v -0.8224502 -0.40943843 -0.031136703
v -0.7277767 0.484057 -0.23825648
v -0.95962876 0.4922891 0.2418067
v -0.95357966 0.46296406 0.22259416
v -0.6602501 0.84266436 -0.72418433
v 0.5231147 0.15369646 -0.010704466
v -0.9451109 0.50533414 0.19926563
v 0.25227207 0.07429525 -0.20013385
v -0.73959875 0.53376496 -0.3488763
v -0.93570846 0.43232396 0.1920724
v -0.77655095 0.46701434 -0.029404039
v -0.71748 0.6220031 -0.42068988
v 0.61139554 -0.008045057 -0.11910529
v -0.7588376 0.5993979 -0.25382626
v -0.9425597 0.5231527 0.235008
v -0.6946117 0.6877675 -0.5686563
v -0.6971629 0.6078141 -0.5268649
v -0.726054 0.65958655 -0.436194
v 0.45888883 0.012061613 -0.18595122
v -0.57891583 0.8468461 -0.7807042
v 0.009834061 0.050795738 -0.19839801
v -0.79221296 0.38728428 -0.032678552
v -0.34665614 0.090272814 -0.16579846
v -0.9576694 0.399685 0.23396915
v -0.74040097 0.43309987 -0.066172235
v -0.8562415 0.30091348 0.005667616
v -0.75573415 0.52988565 -0.23358813
v -0.74414873 0.5480987 -0.22722322
v -0.4468216 0.13867882 -0.11414432
v -0.92380744 0.46037337 0.15775026
v -0.88467234 0.47439158 0.11461741
v -0.90967095 0.52028596 0.16135338
v -0.74001956 0.4764036 -0.15851328
v -0.9619958 0.45212817 0.32080024
v -1 0.1418744 0.2632942
v -0.93843055 0.37692198 0.20899674
v -0.77322394 0.5320817 -0.04555259
v -0.4311333 0.69289625 -0.0071801534
v -0.8956265 0.21860602 0.008310821
v -0.6742157 0.57674 -0.63214576
v -0.8468259 0.4065889 0.04432938
v -0.71382433 0.4291021 -0.11662967
v -0.78035134 0.7240491 -0.45577466
v -0.69329673 0.5749122 -0.5741531
v -0.9730683 0.18658523 0.14829522
v -0.14458933 0.048809987 -0.18051364
v -0.24830538 0.06432735 -0.17167665
v 0.44889456 0.11724398 -0.122271195
v -0.0046049333 0.9973903 -0.23842722
v 0.3254795 0.09010182 -0.1862735
v -0.5539304 0.0855518 -0.12146901
v 0.41120595 0.10287066 -0.15597528
v 0.0074933157 0.98196495 -0.27524796
v -0.20103021 0.09670326 -0.12899098
v -0.41516894 0.08985202 -0.16153787
v 0.15317172 0.08444716 -0.17412259
v 0.037936077 0.98529196 -0.2982215
v 0.067274384 0.95893884 -0.33402964
v -0.4029885 0.022831693 -0.1954425
v -0.5888837 0.5681397 0.06694779
v 0.095192336 0.93330896 -0.34090728
v -0.508391 0.60973406 0.035768576
v 0.41829398 0.17422393 -0.062043004
v -0.5307728 0.5302539 0.019199234
v 0.28798816 0.21827729 -0.030890066
v 0.0810558 0.9231571 -0.35430744
v -0.56254375 0.5523331 0.041002326
v -0.14774539 0.08006813 -0.15199077
v 0.061080597 0.895489 -0.3420118
v 0.39393976 0.058383364 -0.18762794
v -0.574116 0.5158938 0.006417136
v 0.23499261 0.11554756 -0.15113592
v 0.078662395 0.059409197 -0.18895611
v -0.31722584 0.037803244 -0.18502414
v -0.26156086 0.17890541 -0.06848659
v 0.5822645 0.061986607 -0.08022984
v -0.5408853 0.47853395 0.003011277
v 0.36491704 0.13372126 -0.14228581
v 0.57803005 0.10200281 -0.038333092
v -0.12987421 0.0015611562 -0.20887877
v -0.55123454 0.4252886 -0.022000536
v 0.14806944 0.14926477 -0.12158735
v 0.12253164 0.18712436 -0.07460145
v -0.6548849 0.90750825 -0.7455932
v -0.06922529 0.053754535 -0.17698932
v -0.4981207 0.39900127 -0.009008043
v -0.23077612 0.12295118 -0.112066634
v -0.5495645 0.123135306 -0.09548415
v -0.28282478 0.13821863 -0.124296345
v 0.21649018 0.06428783 -0.19792457
v 0.5102011 0.05396493 -0.14446881
v 0.041683923 0.091140665 -0.16237946
v 0.48309836 0.13682467 -0.07314181
v -0.28820324 0.09500684 -0.15196438
v 0.08222611 0.14651637 -0.09986319
v -0.45845953 0.33768156 0.006049004
v -0.38075468 0.25647873 0.050089117
v 0.2998365 0.123477176 -0.15534408
v 0.20975727 0.15589249 -0.10867378
v -0.47409517 0.3024389 -0.02464374
v -0.42347988 0.29347047 0.013557826
v 0.13833833 0.22568092 0.0023011605
v 0.32674187 0.2495223 0.04006868
v -0.6503086 0.9183967 -0.7373741
v 0.29981023 0.17388207 -0.09614161
v -0.40300497 0.24664243 0.0104543045
v 0.2308371 0.22590445 -0.014873102
v -0.4636013 0.17522337 -0.06876278
v -0.38672495 0.12615979 -0.14064203
v -0.01683465 0.13205111 -0.0977197
v -0.6142638 0.9065877 -0.75799364
v -0.444323 0.23996206 -0.026313772
v -0.35503283 0.23492557 0.04865575
v 0.20105186 0.23860762 0.013794491
v 0.33597338 0.21263589 -0.0406213
v 0.39457095 0.2123991 -0.014031397
v -0.58762133 0.88185215 -0.766344
v -0.19049686 0.15720752 -0.04985269
v -0.42682007 0.21191263 -0.03550576
v -0.2231095 0.18972816 -0.01362374
v 0.02756052 0.18504667 -0.020146377
v -0.36982688 0.21289882 -0.036373734
v -0.30771825 0.20811214 -0.027037024
v -0.035034623 0.15893021 -0.05261423
v 0.08160806 0.19298941 -0.04054237
v 0.1834962 0.20195787 -0.063542165
v -0.121786796 0.77254725 -0.21108793
v -0.067331664 0.75215125 -0.21967512
v 0.17761388 -0.59851253 -0.43174383
v -0.61569715 0.38523287 -0.07320761
v -0.20099081 0.6031326 -0.117129385
v -0.9004526 0.011055726 0.5562621
v -0.84386706 0.21835622 -0.033691127
v -0.3219599 0.67265797 -0.10809526
v -0.62145686 0.8627448 -0.7678039
v -0.20797358 0.8334329 -0.14721721
v -0.4208893 0.58402526 -0.040437173
v -0.051738534 -0.47308353 -0.46614537
v -0.5621493 0.29997984 -0.06715842
v -0.56210977 0.7533479 -0.7505376
v -0.65237314 0.051098194 -0.09721998
v -0.6931784 0.5333836 -0.55968785
v 0.43593502 -0.6422883 -0.35680592
v -0.5028153 0.18085176 -0.066685095
v -0.8008658 0.12497634 -0.046762425
v -0.8021545 0.19142446 -0.052601095
v 0.36730316 -0.4620318 -0.3993071
v -0.507076 0.3016236 -0.046144374
v -0.3487207 0.61029947 -0.08619998
v -0.4174045 0.51189613 -0.020041179
v -0.46890083 0.44627637 0.0132685015
v -0.11542208 0.81888866 -0.21594042
v -0.61443466 0.30864584 -0.07853342
v -0.7560497 0.41286162 -0.048537657
v -0.24927849 0.7027589 -0.15134633
v -0.019504184 0.7107017 -0.20371069
v -0.5994565 0.21950027 -0.08456935
v -0.35909626 0.5735971 -0.068105325
v -0.50833845 0.42171174 -0.0016044193
v -0.8194602 0.26496074 -0.030535068
v -0.5024471 0.2295865 -0.053692598
v -0.6450879 0.10318638 -0.08694962
v -0.66013175 0.37141204 -0.074785575
v 0.106409475 0.89300346 -0.36059305
v -0.7487382 0.20712595 -0.07766557
v -0.603783 0.64961874 -0.7222514
v -0.072565414 0.6653333 -0.16287918
v -0.7582458 0.08009452 -0.058387224
v -0.2738563 0.6067357 -0.11129072
v -0.59298664 0.79958415 -0.77973104
v -0.6872213 0.24850972 -0.087383546
v -0.80746716 0.32900244 -0.02669516
v -0.16627416 0.7271657 -0.18572111
v -0.68678075 0.006762069 0.624091
v -0.1975717 0.7734152 -0.17530616
v -0.36052963 0.6885172 -0.0796906
v -0.69774157 0.17933947 -0.085161135
v -0.037178107 0.83988976 -0.26115096
v -0.489744 0.060842566 -0.16474648
v 0.31955716 -0.98330176 0.031733233
v -0.27899107 -0.99870527 0.08951402
v 0.018304015 -0.96008956 0.24566363
v 0.34597668 -0.9871396 0.31755784
v -0.23722468 -0.9939259 0.42620274
v -0.9400744 0.03710626 0.45977208
v -0.7905165 -0.015284256 0.5869745
v -0.7202942 0.49210498 -0.3501912
v -0.9398245 0.05168998 0.59031457
v -0.70322514 0.49395913 -0.42765945
v -0.9580376 0.06363037 0.35274225
v -0.92698985 0.033424214 0.34180117
v -0.6965317 0.028979508 0.6780662
v 0.13426833 -0.94160104 0.52457654
v -0.74380684 0.046535037 0.69556916
v -0.92897546 0.045483056 0.40192416
v -0.84654975 0.07153372 0.66588914
v -0.88513255 0.0035073787 0.47805098
v -0.661026 0.511186 -0.49882847
v -0.87896514 0.07913448 0.66089207
v -0.74731797 0.0064794333 0.6420609
v -0.6173803 0.59010065 -0.6278982
v -0.6329502 0.49530056 -0.3874196
v -0.57545733 0.69476354 -0.7399385
v -0.5909615 0.5445087 -0.39587533
v -0.3342817 0.48240012 -0.00032890958
v -0.62281144 0.45454785 -0.22167388
v -0.63618517 0.5593817 -0.6177858
v 0.10326655 0.7315842 -0.25811324
v -0.5839918 0.6959734 -0.7532465
v -0.684828 0.39768624 -0.0833859
v -0.56801426 0.38564053 -0.05463938
v 0.09052398 0.80421305 -0.32516629
v -0.59695804 0.719578 -0.7625306
v -0.12996627 0.6118907 -0.11678752
v -0.0017776627 0.63945353 -0.119036205
v -0.6360142 0.5433383 -0.5674071
v -0.41502428 0.46892104 0.0033795305
v -0.17245474 0.57275546 -0.07314181
v -0.6458375 0.5789623 -0.65062195
v 0.09769081 0.8605882 -0.35674024
v -0.70680207 0.5076748 -0.48850572
v -0.6035331 0.496129 -0.31273928
v -0.5880947 0.4256173 -0.07065646
v -0.4564081 0.39286003 0.021618906
v -0.27527654 0.5391829 -0.05920254
v -0.6109761 0.53989303 -0.44800293
v -0.6057555 0.62192416 -0.68562794
v -0.6291367 0.4094031 -0.09545776
v -0.649822 0.46028143 -0.2789828
v -0.61012137 0.56612766 -0.50427276
v -0.07798335 0.6026329 -0.075390495
v 0.034359228 0.6847694 -0.18777254
v -0.6910743 0.43390194 -0.16819185
v -0.3419878 0.5271636 -0.046920285
v -0.58599067 0.47206396 -0.14440301
v -0.59727365 0.43709752 -0.12200814
v -0.6559237 0.43210045 -0.1691913
v -0.41995564 0.42495987 0.047774762
v -0.1341349 0.67111933 -0.1665875
v -0.6243105 0.42791867 -0.13764383
v -0.4976473 0.35102907 -0.025629925
v -0.6644977 0.4758118 -0.35008615
v -0.56058437 0.7754798 -0.77219594
v 0.058397867 0.7472198 -0.26009896
v -0.67167777 0.52821565 -0.55784684
f 504 510 1
f 510 527 1
f 1 527 101
f 504 1 505
f 505 1 584
f 1 101 584
f 91 539 2
f 2 634 199
f 91 2 485
f 485 2 199
f 2 539 634
f 877 19 3
f 19 526 3
f 3 526 232
f 3 232 151
f 3 409 875
f 3 875 877
f 3 151 409
f 4 192 113
f 4 215 192
f 207 4 113
f 219 215 4
f 220 4 207
f 83 219 4
f 220 83 4
f 727 5 658
f 5 826 673
f 935 5 673
f 5 727 826
f 658 5 935
f 343 572 6
f 99 343 6
f 572 576 6
f 576 90 6
f 6 90 99
f 182 7 94
f 7 58 94
f 177 7 297
f 7 549 58
f 7 84 549
f 177 84 7
f 182 297 7
f 294 8 287
f 389 8 255
f 382 287 8
f 389 382 8
f 8 294 255
f 26 9 479
f 9 245 339
f 245 9 328
f 26 328 9
f 339 76 9
f 9 76 479
f 413 10 137
f 10 413 677
f 10 677 159
f 137 10 570
f 10 197 570
f 10 159 134
f 464 197 10
f 10 134 464
f 693 11 145
f 11 693 679
f 739 646 11
f 145 11 646
f 739 11 679
f 36 198 12
f 198 160 12
f 160 39 12
f 337 12 221
f 337 36 12
f 12 39 221
f 654 13 738
f 13 124 567
f 124 13 654
f 567 738 13
f 951 14 195
f 144 195 14
f 302 144 14
f 949 302 14
f 949 14 951
f 204 15 304
f 95 304 15
f 204 75 15
f 75 99 15
f 99 297 15
f 15 297 95
f 310 16 38
f 479 44 16
f 310 26 16
f 16 26 479
f 44 38 16
f 34 17 23
f 34 260 17
f 35 17 260
f 23 17 31
f 17 35 31
f 23 25 18
f 23 18 941
f 941 18 408
f 18 25 85
f 408 18 78
f 18 85 78
f 610 526 19
f 163 611 19
f 611 610 19
f 19 877 163
f 370 20 599
f 20 108 209
f 20 329 108
f 370 329 20
f 20 209 540
f 540 599 20
f 255 21 317
f 317 21 133
f 255 295 21
f 295 361 21
f 21 361 272
f 21 272 69
f 69 133 21
f 22 150 540
f 209 22 540
f 22 577 150
f 699 577 22
f 22 624 699
f 22 646 624
f 22 209 646
f 31 25 23
f 23 941 939
f 950 23 939
f 34 23 950
f 912 24 932
f 912 891 24
f 679 893 24
f 933 679 24
f 891 933 24
f 932 24 893
f 25 31 66
f 85 25 66
f 328 26 310
f 27 160 198
f 27 52 160
f 36 27 198
f 590 27 36
f 590 185 27
f 185 52 27
f 60 395 28
f 325 28 395
f 60 28 73
f 73 28 259
f 28 271 259
f 147 28 325
f 147 271 28
f 29 352 80
f 205 352 29
f 168 166 29
f 166 205 29
f 80 608 29
f 608 168 29
f 30 252 582
f 30 154 339
f 582 154 30
f 30 339 252
f 66 31 135
f 31 128 135
f 35 98 31
f 31 98 128
f 186 32 218
f 192 32 186
f 32 67 218
f 67 32 86
f 215 86 32
f 215 32 192
f 33 175 48
f 141 33 48
f 33 103 175
f 141 121 33
f 121 126 33
f 33 126 103
f 60 34 376
f 376 34 940
f 34 950 940
f 60 73 34
f 34 73 260
f 93 98 35
f 260 93 35
f 423 36 337
f 589 36 423
f 589 566 36
f 566 590 36
f 43 37 427
f 37 796 427
f 43 439 37
f 683 796 37
f 439 683 37
f 217 38 108
f 38 44 108
f 310 38 217
f 39 160 173
f 221 39 82
f 39 173 82
f 140 40 141
f 141 40 121
f 146 40 140
f 40 335 121
f 40 368 277
f 277 335 40
f 146 368 40
f 41 162 206
f 609 41 206
f 41 61 162
f 609 152 41
f 41 88 61
f 152 88 41
f 790 42 373
f 799 42 790
f 463 373 42
f 799 782 42
f 782 768 42
f 794 463 42
f 768 314 42
f 42 314 794
f 43 134 159
f 159 697 43
f 697 439 43
f 641 134 43
f 43 427 641
f 44 209 108
f 44 479 646
f 44 646 209
f 86 45 149
f 489 604 45
f 536 489 45
f 558 502 45
f 558 45 86
f 536 45 502
f 45 604 149
f 706 46 115
f 296 46 79
f 296 115 46
f 79 46 541
f 528 541 46
f 46 706 528
f 54 47 642
f 47 141 642
f 54 132 47
f 140 47 132
f 140 141 47
f 141 48 642
f 642 48 652
f 652 48 668
f 175 668 48
f 303 49 231
f 303 372 49
f 50 49 493
f 231 49 50
f 266 556 49
f 493 49 556
f 49 372 266
f 265 285 50
f 285 231 50
f 493 56 50
f 568 103 50
f 512 568 50
f 56 512 50
f 265 50 103
f 547 51 498
f 547 143 51
f 51 143 112
f 51 112 498
f 52 545 160
f 185 545 52
f 53 581 588
f 531 581 53
f 511 53 262
f 53 588 326
f 326 262 53
f 53 511 531
f 54 642 649
f 54 649 132
f 76 339 55
f 339 154 55
f 123 76 55
f 145 55 154
f 145 123 55
f 603 70 56
f 603 56 493
f 70 535 56
f 535 512 56
f 678 57 643
f 800 57 678
f 703 750 57
f 800 703 57
f 750 643 57
f 71 58 72
f 549 174 58
f 71 94 58
f 72 58 174
f 59 555 445
f 59 445 377
f 377 889 59
f 889 945 59
f 555 59 945
f 386 60 376
f 386 395 60
f 61 572 162
f 61 576 572
f 88 576 61
f 203 183 62
f 62 183 859
f 203 62 151
f 62 859 882
f 62 882 878
f 62 878 151
f 63 68 74
f 616 68 63
f 616 63 518
f 72 63 74
f 174 63 72
f 174 518 63
f 90 64 99
f 64 297 99
f 576 64 90
f 576 177 64
f 64 177 297
f 481 486 65
f 172 65 482
f 481 65 172
f 65 485 482
f 65 486 91
f 65 91 485
f 66 135 113
f 66 117 85
f 66 136 117
f 66 113 136
f 218 67 156
f 86 156 67
f 607 184 68
f 616 607 68
f 184 122 68
f 74 68 83
f 83 68 122
f 299 69 272
f 133 69 448
f 448 69 299
f 172 482 70
f 603 507 70
f 507 172 70
f 70 482 535
f 188 94 71
f 139 188 71
f 139 71 138
f 138 71 72
f 138 72 74
f 73 170 260
f 73 247 170
f 73 259 247
f 74 83 109
f 131 74 109
f 138 74 131
f 343 99 75
f 279 343 75
f 204 181 75
f 347 75 181
f 293 75 347
f 293 279 75
f 76 123 479
f 139 202 77
f 93 77 98
f 93 119 77
f 77 119 139
f 77 128 98
f 202 128 77
f 78 85 116
f 78 116 194
f 408 78 629
f 629 78 87
f 87 78 194
f 79 147 296
f 79 561 165
f 541 561 79
f 79 165 271
f 79 271 147
f 293 80 352
f 259 80 293
f 271 80 259
f 271 165 80
f 165 561 80
f 561 608 80
f 712 81 567
f 712 744 81
f 81 738 567
f 744 738 81
f 399 82 980
f 82 838 980
f 221 82 399
f 828 82 173
f 828 834 82
f 834 838 82
f 122 553 83
f 219 83 553
f 109 83 220
f 584 549 84
f 583 584 84
f 583 84 177
f 117 116 85
f 215 558 86
f 86 149 156
f 242 87 421
f 87 194 421
f 242 137 87
f 137 629 87
f 497 576 88
f 152 211 88
f 211 497 88
f 880 89 163
f 89 500 611
f 89 611 163
f 870 500 89
f 870 89 880
f 486 585 91
f 585 539 91
f 92 263 620
f 107 92 620
f 107 736 92
f 92 736 674
f 92 670 263
f 92 674 670
f 260 170 93
f 119 93 170
f 188 95 94
f 95 182 94
f 208 95 188
f 297 182 95
f 304 95 208
f 621 914 96
f 96 914 901
f 901 845 96
f 621 96 845
f 659 213 97
f 97 397 659
f 97 730 757
f 670 97 263
f 97 757 263
f 97 670 397
f 730 97 213
f 421 100 137
f 100 413 137
f 622 100 421
f 417 413 100
f 417 100 307
f 100 948 947
f 100 947 307
f 622 656 100
f 656 385 100
f 948 100 952
f 100 385 952
f 584 101 549
f 549 101 518
f 527 616 101
f 101 616 518
f 155 102 132
f 155 195 102
f 102 146 140
f 195 146 102
f 102 140 132
f 103 114 175
f 103 568 114
f 126 265 103
f 795 716 104
f 819 795 104
f 104 821 819
f 104 894 227
f 227 821 104
f 716 933 104
f 894 104 933
f 105 230 205
f 166 105 205
f 206 105 166
f 572 230 105
f 162 105 206
f 162 572 105
f 106 190 617
f 183 106 617
f 106 476 510
f 106 183 522
f 106 522 476
f 190 106 510
f 669 107 620
f 229 223 107
f 669 229 107
f 107 223 736
f 329 217 108
f 109 220 207
f 131 109 207
f 189 124 110
f 110 626 487
f 487 189 110
f 626 110 654
f 110 124 654
f 111 719 602
f 111 602 792
f 733 111 792
f 111 733 719
f 498 112 558
f 112 536 502
f 143 536 112
f 112 502 558
f 128 113 135
f 128 193 113
f 113 186 136
f 113 192 186
f 193 207 113
f 175 114 668
f 573 114 568
f 637 114 573
f 644 114 637
f 668 114 644
f 298 115 386
f 386 115 147
f 388 115 298
f 147 115 296
f 770 115 388
f 706 115 770
f 117 161 116
f 116 169 194
f 178 169 116
f 116 161 178
f 136 186 117
f 161 117 201
f 186 201 117
f 118 172 507
f 517 118 477
f 164 172 118
f 477 118 142
f 517 164 118
f 142 118 507
f 170 181 119
f 204 139 119
f 119 181 204
f 224 120 229
f 158 120 224
f 120 570 197
f 158 570 120
f 120 197 665
f 120 665 229
f 121 335 126
f 191 593 122
f 122 498 553
f 593 498 122
f 184 191 122
f 123 145 479
f 592 124 189
f 592 552 124
f 124 552 567
f 125 337 456
f 992 381 125
f 423 337 125
f 992 125 456
f 381 468 125
f 468 423 125
f 335 265 126
f 596 176 127
f 596 127 601
f 176 211 127
f 601 127 152
f 127 211 152
f 128 202 193
f 190 129 617
f 129 190 504
f 187 129 157
f 129 504 157
f 617 129 153
f 187 153 129
f 521 180 130
f 307 130 506
f 506 130 792
f 130 180 792
f 521 130 307
f 131 207 193
f 202 131 193
f 202 138 131
f 132 649 628
f 132 628 627
f 625 132 627
f 155 132 625
f 133 233 988
f 448 233 133
f 133 988 317
f 641 902 134
f 134 925 464
f 134 902 925
f 158 137 570
f 242 421 137
f 629 137 758
f 758 137 158
f 139 138 202
f 139 208 188
f 204 208 139
f 557 477 142
f 142 507 484
f 557 142 484
f 610 500 143
f 143 531 536
f 500 531 143
f 610 143 547
f 144 146 195
f 144 302 301
f 146 144 301
f 612 693 145
f 574 612 145
f 574 145 154
f 145 646 479
f 368 146 268
f 146 301 268
f 386 147 325
f 216 604 148
f 148 228 210
f 148 338 228
f 148 333 338
f 333 148 604
f 210 216 148
f 149 604 216
f 156 149 216
f 150 557 179
f 477 557 150
f 530 477 150
f 540 150 179
f 577 530 150
f 232 203 151
f 151 881 409
f 151 878 881
f 609 601 152
f 598 617 153
f 598 153 860
f 597 153 187
f 860 153 597
f 582 574 154
f 627 155 625
f 348 155 627
f 155 951 195
f 951 155 348
f 218 156 216
f 157 504 505
f 176 187 157
f 176 157 503
f 157 505 503
f 758 158 224
f 677 697 159
f 545 167 160
f 160 167 173
f 161 201 214
f 161 212 178
f 214 212 161
f 880 163 877
f 571 481 164
f 571 164 509
f 164 517 509
f 164 481 172
f 206 166 168
f 167 545 487
f 167 487 490
f 173 167 490
f 608 595 168
f 595 206 168
f 178 200 169
f 169 622 194
f 622 169 200
f 247 181 170
f 171 965 438
f 411 171 438
f 447 965 171
f 411 420 171
f 171 420 447
f 173 490 501
f 817 173 501
f 828 173 817
f 549 518 174
f 187 176 596
f 503 211 176
f 576 497 177
f 497 583 177
f 200 178 212
f 606 179 548
f 179 557 548
f 540 179 606
f 180 733 792
f 180 418 733
f 362 180 521
f 364 180 362
f 364 418 180
f 247 347 181
f 859 183 617
f 203 522 183
f 494 191 184
f 607 494 184
f 600 592 185
f 185 592 189
f 591 600 185
f 591 185 590
f 185 189 545
f 201 186 218
f 597 187 596
f 189 487 545
f 190 510 504
f 191 547 593
f 232 526 191
f 494 232 191
f 191 526 547
f 194 622 421
f 914 928 196
f 910 196 920
f 196 910 914
f 196 225 920
f 928 225 196
f 665 197 898
f 898 197 748
f 197 464 748
f 634 637 199
f 485 199 475
f 475 199 637
f 622 200 656
f 200 943 656
f 957 943 200
f 931 957 200
f 212 313 200
f 313 931 200
f 201 216 210
f 214 201 210
f 201 218 216
f 232 522 203
f 208 204 304
f 352 205 293
f 230 293 205
f 595 609 206
f 214 210 222
f 210 228 222
f 211 503 497
f 212 214 222
f 212 308 313
f 212 222 308
f 213 234 730
f 847 213 813
f 813 213 659
f 234 213 847
f 558 215 498
f 219 553 215
f 553 498 215
f 244 217 329
f 310 217 244
f 456 221 399
f 456 337 221
f 308 222 270
f 222 344 270
f 228 344 222
f 736 223 676
f 676 223 816
f 229 665 223
f 223 665 650
f 223 650 936
f 816 223 936
f 224 669 717
f 669 224 229
f 224 629 758
f 717 629 224
f 928 619 225
f 225 619 363
f 225 363 920
f 226 673 1001
f 913 226 1001
f 885 226 913
f 935 673 226
f 884 226 885
f 884 935 226
f 227 907 974
f 908 834 227
f 227 974 908
f 227 894 907
f 227 834 821
f 228 341 344
f 338 341 228
f 279 293 230
f 279 230 572
f 275 231 285
f 336 231 275
f 303 231 336
f 522 232 494
f 422 233 448
f 233 962 975
f 422 962 233
f 233 975 988
f 234 653 730
f 234 847 765
f 653 234 765
f 300 235 372
f 235 266 372
f 324 235 300
f 324 449 235
f 235 449 266
f 588 236 326
f 319 236 349
f 273 236 319
f 273 326 236
f 404 236 499
f 499 236 588
f 349 236 404
f 237 327 306
f 287 237 342
f 237 306 359
f 237 359 312
f 237 312 342
f 327 237 287
f 270 238 367
f 238 248 367
f 278 248 238
f 270 341 238
f 239 238 341
f 238 239 278
f 239 309 278
f 239 355 309
f 338 239 341
f 239 338 355
f 267 240 244
f 240 292 244
f 249 240 267
f 283 292 240
f 249 283 240
f 241 930 996
f 926 241 888
f 926 618 241
f 618 912 241
f 912 930 241
f 996 888 241
f 268 243 368
f 301 243 268
f 274 243 301
f 274 281 243
f 243 281 368
f 315 244 329
f 267 244 315
f 292 310 244
f 286 245 282
f 286 339 245
f 282 245 328
f 448 246 387
f 246 448 299
f 257 246 320
f 387 246 257
f 246 299 249
f 320 246 249
f 247 259 293
f 247 293 347
f 367 248 322
f 248 332 322
f 278 309 248
f 340 332 248
f 309 340 248
f 320 249 267
f 290 283 249
f 299 290 249
f 250 292 283
f 250 310 292
f 250 328 310
f 250 258 328
f 312 250 283
f 312 258 250
f 369 269 251
f 369 251 252
f 269 544 251
f 252 251 582
f 582 251 544
f 339 286 252
f 369 252 286
f 253 276 360
f 253 315 276
f 330 257 253
f 315 253 267
f 320 267 253
f 320 253 257
f 330 253 360
f 351 302 254
f 313 254 931
f 313 351 254
f 931 254 949
f 949 254 302
f 972 389 255
f 255 317 972
f 294 295 255
f 473 523 256
f 467 256 566
f 256 523 566
f 440 256 467
f 406 256 440
f 406 473 256
f 469 261 257
f 469 257 330
f 387 257 261
f 312 356 258
f 356 282 258
f 282 328 258
f 261 422 387
f 422 261 469
f 334 262 273
f 333 262 334
f 262 326 273
f 604 262 333
f 511 262 489
f 262 604 489
f 886 263 757
f 886 895 263
f 895 620 263
f 361 264 272
f 264 312 283
f 264 283 290
f 342 312 264
f 272 264 290
f 357 342 264
f 357 264 361
f 335 285 265
f 394 266 449
f 556 266 394
f 269 513 514
f 513 269 288
f 288 269 369
f 269 514 544
f 308 270 350
f 270 367 350
f 344 341 270
f 299 272 290
f 334 273 355
f 355 273 319
f 350 274 301
f 274 367 281
f 274 350 367
f 291 275 285
f 291 331 275
f 331 305 275
f 305 336 275
f 360 276 454
f 370 402 276
f 276 402 454
f 315 370 276
f 368 291 277
f 277 285 335
f 277 291 285
f 572 343 279
f 280 305 289
f 284 280 289
f 305 280 300
f 280 284 300
f 368 281 291
f 281 322 291
f 367 322 281
f 359 282 356
f 354 286 282
f 359 354 282
f 284 332 340
f 284 289 332
f 309 284 340
f 309 319 284
f 284 324 300
f 319 349 284
f 284 349 324
f 354 288 286
f 288 369 286
f 287 311 327
f 382 311 287
f 287 342 294
f 346 288 354
f 346 306 288
f 306 358 288
f 288 358 513
f 332 289 331
f 331 289 305
f 322 331 291
f 294 357 295
f 294 342 357
f 295 357 361
f 298 415 623
f 623 388 298
f 396 298 386
f 415 298 396
f 300 336 305
f 300 371 336
f 300 372 371
f 351 301 302
f 350 301 351
f 371 303 336
f 372 303 371
f 306 346 354
f 306 354 359
f 327 358 306
f 378 417 307
f 307 947 521
f 378 307 506
f 308 350 313
f 355 319 309
f 447 311 382
f 327 311 447
f 359 356 312
f 350 351 313
f 684 794 314
f 563 314 768
f 689 314 563
f 689 684 314
f 315 329 370
f 454 402 316
f 410 316 394
f 316 402 394
f 410 454 316
f 317 988 972
f 321 318 732
f 318 457 732
f 321 729 318
f 318 580 457
f 442 605 318
f 729 442 318
f 605 580 318
f 719 321 715
f 715 321 723
f 723 321 461
f 321 732 461
f 719 720 321
f 720 731 321
f 321 731 729
f 322 332 331
f 323 349 404
f 323 410 349
f 432 323 404
f 454 410 323
f 432 454 323
f 410 449 324
f 410 324 349
f 395 386 325
f 327 420 380
f 420 327 447
f 380 358 327
f 330 444 469
f 360 444 330
f 338 333 334
f 338 334 355
f 345 412 958
f 345 429 412
f 958 984 345
f 345 984 429
f 348 627 401
f 401 957 348
f 957 951 348
f 984 923 353
f 923 960 353
f 984 353 429
f 429 353 416
f 960 897 353
f 353 897 416
f 513 358 380
f 460 444 360
f 400 360 454
f 400 460 360
f 533 362 947
f 533 364 362
f 947 362 521
f 363 779 911
f 619 929 363
f 363 967 920
f 929 779 363
f 363 911 967
f 533 455 364
f 364 455 696
f 364 696 418
f 626 738 365
f 666 626 365
f 700 365 744
f 744 365 738
f 365 700 424
f 424 740 365
f 740 666 365
f 366 428 455
f 455 419 366
f 639 630 366
f 419 639 366
f 366 630 428
f 599 402 370
f 944 373 434
f 434 373 766
f 944 759 373
f 373 784 766
f 759 790 373
f 690 784 373
f 373 463 690
f 376 937 374
f 374 937 375
f 376 374 396
f 375 886 374
f 374 900 415
f 886 900 374
f 415 396 374
f 375 937 465
f 375 465 886
f 376 396 386
f 376 940 937
f 942 889 377
f 377 445 942
f 413 417 378
f 413 378 677
f 677 378 697
f 378 506 697
f 433 379 398
f 405 379 433
f 470 472 379
f 472 473 379
f 379 874 470
f 473 398 379
f 405 874 379
f 380 818 488
f 384 380 420
f 921 818 380
f 488 513 380
f 384 921 380
f 381 992 403
f 383 468 381
f 381 979 383
f 381 403 979
f 453 382 389
f 447 382 453
f 383 446 468
f 979 961 383
f 446 383 961
f 384 391 921
f 384 420 411
f 411 391 384
f 385 954 952
f 385 656 954
f 422 448 387
f 770 388 392
f 388 623 392
f 972 989 389
f 453 389 989
f 390 400 441
f 390 431 460
f 614 390 441
f 390 460 400
f 390 854 431
f 614 854 390
f 969 977 391
f 969 391 438
f 977 921 391
f 391 411 438
f 450 728 392
f 392 623 450
f 746 770 392
f 776 746 392
f 776 392 653
f 392 728 653
f 837 393 674
f 778 393 842
f 393 670 674
f 670 393 397
f 842 393 837
f 778 397 393
f 410 394 449
f 548 556 394
f 394 402 548
f 659 397 830
f 830 397 778
f 433 398 416
f 398 406 416
f 398 473 406
f 456 399 992
f 399 980 992
f 400 432 441
f 400 454 432
f 943 401 889
f 957 401 943
f 401 651 889
f 401 956 651
f 401 953 956
f 401 627 953
f 548 402 606
f 402 599 606
f 963 403 992
f 963 979 403
f 432 404 499
f 724 405 1000
f 777 874 405
f 405 724 777
f 433 1000 405
f 416 406 440
f 407 938 691
f 407 691 709
f 709 465 407
f 465 938 407
f 691 408 629
f 691 938 408
f 408 938 941
f 409 881 414
f 409 414 875
f 987 958 412
f 412 446 987
f 412 459 446
f 440 459 412
f 429 440 412
f 414 881 825
f 811 414 825
f 875 414 811
f 900 904 415
f 904 450 415
f 450 623 415
f 897 433 416
f 429 416 440
f 418 696 733
f 639 419 555
f 555 419 445
f 445 419 455
f 469 962 422
f 459 467 423
f 467 589 423
f 468 459 423
f 690 424 520
f 520 424 700
f 690 463 424
f 463 740 424
f 508 425 798
f 788 425 508
f 788 751 425
f 425 689 563
f 798 425 563
f 425 751 689
f 426 480 474
f 525 480 426
f 426 861 841
f 861 426 471
f 426 841 458
f 474 471 426
f 426 458 525
f 427 796 890
f 427 890 641
f 428 734 731
f 630 734 428
f 696 428 731
f 455 428 696
f 430 698 944
f 430 999 698
f 430 944 946
f 999 430 946
f 853 431 858
f 995 460 431
f 981 995 431
f 431 854 858
f 981 431 853
f 441 432 499
f 433 897 1000
f 434 766 944
f 875 844 435
f 435 844 832
f 875 435 832
f 880 436 879
f 879 436 686
f 436 832 686
f 880 832 436
f 773 437 685
f 685 437 702
f 773 775 437
f 437 800 702
f 681 800 437
f 775 681 437
f 1001 438 965
f 1001 969 438
f 506 452 439
f 697 506 439
f 452 451 439
f 439 451 683
f 440 467 459
f 441 499 581
f 614 441 581
f 731 734 442
f 734 694 442
f 731 442 729
f 442 694 605
f 443 681 775
f 769 443 775
f 688 443 769
f 688 755 443
f 443 771 681
f 755 771 443
f 444 995 469
f 444 460 995
f 533 445 455
f 445 533 942
f 987 446 961
f 468 446 459
f 447 453 965
f 757 450 904
f 728 450 730
f 730 450 757
f 452 802 451
f 802 683 451
f 802 452 602
f 506 792 452
f 452 792 602
f 965 453 989
f 457 564 461
f 457 580 791
f 564 457 791
f 732 457 461
f 762 462 458
f 680 525 458
f 462 754 458
f 711 680 458
f 754 711 458
f 458 841 762
f 461 781 793
f 723 461 793
f 461 564 781
f 762 685 462
f 685 702 462
f 462 702 754
f 463 794 740
f 464 925 748
f 465 709 722
f 722 895 465
f 465 895 886
f 937 939 465
f 939 938 465
f 508 798 466
f 718 508 466
f 752 466 783
f 466 798 783
f 718 466 752
f 467 566 589
f 995 962 469
f 470 471 472
f 868 471 470
f 874 868 470
f 474 483 471
f 471 483 472
f 471 868 861
f 472 483 473
f 492 523 473
f 483 492 473
f 474 495 483
f 474 480 495
f 482 485 475
f 475 637 573
f 482 475 535
f 535 475 512
f 512 475 573
f 522 494 476
f 527 476 607
f 510 476 527
f 476 494 607
f 530 517 477
f 478 556 548
f 548 557 478
f 478 484 556
f 557 484 478
f 480 525 496
f 480 496 495
f 615 481 571
f 481 615 486
f 495 534 483
f 534 492 483
f 556 484 493
f 484 507 603
f 484 603 493
f 615 565 486
f 565 585 486
f 487 613 491
f 490 487 491
f 613 487 626
f 815 488 818
f 488 814 513
f 815 814 488
f 531 511 489
f 536 531 489
f 490 491 509
f 490 509 560
f 490 560 501
f 701 571 491
f 491 571 509
f 613 684 491
f 491 684 701
f 534 524 492
f 492 524 523
f 495 559 534
f 495 496 559
f 496 636 559
f 525 680 496
f 496 750 636
f 643 750 496
f 496 680 643
f 497 503 583
f 547 498 593
f 581 499 588
f 500 594 531
f 611 500 610
f 500 870 594
f 560 817 501
f 503 505 583
f 505 584 583
f 508 793 767
f 516 508 718
f 508 787 788
f 793 508 516
f 508 767 787
f 509 517 560
f 512 573 568
f 514 513 814
f 810 514 814
f 806 544 514
f 806 514 810
f 515 701 751
f 515 615 701
f 515 789 615
f 751 789 515
f 516 718 519
f 723 516 519
f 793 516 723
f 560 517 530
f 714 519 752
f 756 519 714
f 519 718 752
f 723 519 756
f 771 520 744
f 520 700 744
f 755 520 771
f 690 520 755
f 523 524 566
f 566 524 575
f 524 534 546
f 524 546 575
f 610 547 526
f 527 607 616
f 528 532 541
f 528 706 532
f 529 810 658
f 726 529 658
f 726 893 529
f 708 574 529
f 708 529 893
f 529 574 544
f 806 810 529
f 529 544 806
f 817 560 530
f 817 530 660
f 660 530 577
f 594 581 531
f 532 542 537
f 541 532 537
f 532 551 542
f 532 836 551
f 532 833 836
f 532 706 833
f 952 533 947
f 533 952 942
f 534 559 546
f 541 537 561
f 537 586 561
f 537 595 586
f 542 550 537
f 537 550 595
f 698 990 538
f 990 790 538
f 759 698 538
f 538 790 759
f 671 634 539
f 671 539 710
f 585 710 539
f 540 606 599
f 542 551 550
f 647 543 657
f 605 694 543
f 580 543 791
f 605 543 580
f 543 632 791
f 647 632 543
f 694 657 543
f 574 582 544
f 575 546 600
f 546 592 600
f 559 592 546
f 550 578 595
f 551 587 550
f 550 587 578
f 551 554 587
f 554 551 763
f 551 836 763
f 567 552 559
f 559 552 592
f 554 579 587
f 562 579 554
f 554 763 562
f 555 635 639
f 651 635 555
f 945 651 555
f 559 636 567
f 561 586 608
f 569 579 562
f 562 873 569
f 763 820 562
f 562 820 873
f 563 779 929
f 563 768 779
f 798 563 929
f 791 761 564
f 564 761 781
f 585 565 710
f 565 772 710
f 615 772 565
f 575 591 566
f 591 590 566
f 636 750 567
f 703 567 750
f 712 567 703
f 860 597 569
f 569 596 579
f 597 596 569
f 569 873 872
f 860 569 872
f 615 571 701
f 708 612 574
f 600 591 575
f 699 660 577
f 595 578 609
f 587 579 578
f 579 601 578
f 578 601 609
f 596 601 579
f 594 614 581
f 586 595 608
f 870 614 594
f 864 871 598
f 617 598 871
f 598 860 864
f 719 715 602
f 602 756 802
f 715 756 602
f 693 612 708
f 613 666 684
f 666 613 626
f 870 854 614
f 772 615 789
f 859 617 871
f 906 618 926
f 891 618 906
f 891 912 618
f 922 903 619
f 922 619 928
f 903 917 619
f 619 917 929
f 669 620 722
f 722 620 895
f 621 934 914
f 675 621 919
f 675 934 621
f 919 621 845
f 742 624 739
f 699 624 742
f 624 646 739
f 738 626 654
f 628 953 627
f 628 649 661
f 672 628 661
f 628 672 953
f 691 629 709
f 717 709 629
f 734 630 640
f 645 630 639
f 645 640 630
f 631 663 644
f 648 663 631
f 631 633 647
f 631 647 648
f 644 633 631
f 791 632 692
f 632 671 692
f 633 671 632
f 647 633 632
f 634 671 633
f 633 644 634
f 634 644 637
f 956 661 635
f 635 661 655
f 639 635 645
f 635 655 645
f 956 635 651
f 652 638 664
f 664 638 655
f 652 648 638
f 655 638 640
f 638 648 640
f 640 657 734
f 648 657 640
f 655 640 645
f 641 890 903
f 641 903 902
f 667 642 652
f 642 667 649
f 711 643 680
f 711 678 643
f 663 668 644
f 648 647 657
f 652 663 648
f 667 664 649
f 649 664 661
f 650 898 808
f 665 898 650
f 936 650 808
f 651 945 889
f 667 652 664
f 652 668 663
f 730 653 728
f 827 776 653
f 827 653 807
f 807 653 765
f 661 664 655
f 656 889 954
f 943 889 656
f 734 657 694
f 727 658 810
f 909 726 658
f 935 909 658
f 659 830 813
f 660 699 819
f 817 660 824
f 660 819 824
f 672 661 956
f 753 662 766
f 944 766 662
f 978 662 682
f 946 662 978
f 662 753 682
f 944 662 946
f 794 684 666
f 740 794 666
f 722 709 669
f 717 669 709
f 692 671 710
f 956 953 672
f 977 969 673
f 673 826 977
f 969 1001 673
f 736 705 674
f 837 674 705
f 902 675 925
f 902 903 675
f 903 922 675
f 675 919 748
f 922 934 675
f 925 675 748
f 831 676 816
f 705 676 831
f 705 736 676
f 754 678 711
f 702 678 754
f 702 800 678
f 933 716 679
f 693 893 679
f 739 679 716
f 681 712 800
f 681 744 712
f 681 771 744
f 978 682 899
f 774 801 682
f 753 774 682
f 682 801 899
f 713 683 714
f 802 714 683
f 683 713 796
f 701 684 689
f 707 685 762
f 707 773 685
f 879 686 687
f 687 686 735
f 686 846 735
f 686 832 846
f 876 687 865
f 687 786 865
f 876 879 687
f 786 687 735
f 688 774 753
f 688 769 774
f 766 688 753
f 784 688 766
f 785 688 784
f 785 755 688
f 751 701 689
f 784 690 785
f 785 690 755
f 760 692 772
f 772 692 710
f 791 692 760
f 693 708 893
f 733 695 719
f 719 695 720
f 733 696 695
f 695 696 720
f 696 731 720
f 698 759 944
f 999 986 698
f 990 698 986
f 699 742 819
f 800 712 703
f 872 820 704
f 704 820 835
f 872 704 862
f 704 835 862
f 803 705 825
f 837 705 803
f 825 705 811
f 811 705 804
f 804 705 831
f 706 770 833
f 762 725 707
f 749 773 707
f 747 749 707
f 747 707 743
f 725 743 707
f 713 714 752
f 752 783 713
f 713 783 796
f 756 714 802
f 715 723 756
f 795 739 716
f 833 721 836
f 836 721 850
f 721 805 850
f 805 721 848
f 721 833 848
f 724 1000 970
f 970 927 724
f 724 927 777
f 743 725 970
f 927 970 725
f 725 892 927
f 762 892 725
f 932 726 909
f 932 893 726
f 815 823 727
f 810 814 727
f 823 826 727
f 814 815 727
f 735 866 786
f 735 780 866
f 851 780 735
f 846 851 735
f 741 737 976
f 737 923 984
f 984 976 737
f 741 743 737
f 743 923 737
f 742 739 795
f 741 976 797
f 747 741 797
f 747 743 741
f 742 795 819
f 743 970 923
f 745 849 842
f 867 745 825
f 878 745 867
f 878 882 745
f 825 745 842
f 882 852 745
f 745 852 849
f 848 770 746
f 848 746 776
f 749 747 797
f 898 748 919
f 774 749 801
f 749 774 773
f 749 797 801
f 789 751 788
f 904 886 757
f 761 791 760
f 772 764 760
f 760 764 761
f 761 764 787
f 781 761 767
f 767 761 787
f 762 841 892
f 763 850 820
f 763 836 850
f 764 789 787
f 772 789 764
f 829 765 847
f 829 855 765
f 855 807 765
f 793 781 767
f 782 911 768
f 779 768 911
f 774 769 773
f 769 775 773
f 833 770 848
f 805 776 809
f 848 776 805
f 776 827 809
f 874 777 892
f 777 927 892
f 849 778 842
f 830 778 849
f 780 812 866
f 780 816 812
f 831 816 780
f 851 831 780
f 782 967 911
f 967 782 799
f 890 783 917
f 929 783 798
f 783 929 917
f 890 796 783
f 865 786 845
f 786 936 808
f 845 786 808
f 812 936 786
f 866 812 786
f 787 789 788
f 799 790 990
f 899 797 1002
f 976 1002 797
f 899 801 797
f 799 994 967
f 990 994 799
f 842 837 803
f 842 803 825
f 804 831 851
f 811 804 851
f 850 805 820
f 805 835 820
f 805 809 835
f 835 807 855
f 835 827 807
f 898 845 808
f 809 827 835
f 875 811 844
f 844 811 851
f 816 936 812
f 813 830 849
f 856 813 839
f 856 847 813
f 839 813 849
f 823 815 818
f 824 828 817
f 818 921 823
f 819 821 824
f 873 820 872
f 821 834 824
f 883 822 856
f 860 872 822
f 822 862 856
f 864 822 883
f 864 860 822
f 822 872 862
f 921 977 823
f 977 826 823
f 824 834 828
f 881 867 825
f 862 829 856
f 862 855 829
f 856 829 847
f 844 846 832
f 880 877 832
f 875 832 877
f 834 916 838
f 908 916 834
f 862 835 855
f 838 968 980
f 843 968 838
f 838 916 843
f 852 839 849
f 840 883 839
f 883 856 839
f 840 839 852
f 882 859 840
f 882 840 852
f 859 883 840
f 868 892 841
f 841 861 868
f 843 981 853
f 908 981 843
f 843 998 968
f 853 998 843
f 916 908 843
f 844 851 846
f 865 845 901
f 898 919 845
f 998 853 857
f 853 858 857
f 854 863 858
f 870 863 854
f 857 869 905
f 858 863 857
f 857 863 869
f 905 998 857
f 871 883 859
f 863 879 876
f 869 863 876
f 870 879 863
f 871 864 883
f 876 865 901
f 881 878 867
f 892 868 874
f 869 876 918
f 905 869 918
f 870 880 879
f 876 901 918
f 932 884 930
f 884 932 909
f 930 884 885
f 909 935 884
f 930 885 996
f 996 885 913
f 900 886 904
f 896 887 968
f 887 896 910
f 887 910 920
f 968 887 980
f 887 920 967
f 967 985 887
f 985 980 887
f 982 888 971
f 982 926 888
f 888 996 971
f 954 889 942
f 903 890 917
f 894 933 891
f 894 891 906
f 894 906 915
f 894 915 907
f 914 910 896
f 914 896 918
f 896 968 905
f 896 905 918
f 1000 897 960
f 899 1002 978
f 914 918 901
f 968 998 905
f 915 906 926
f 907 991 974
f 991 907 915
f 908 974 995
f 981 908 995
f 930 912 932
f 913 1001 989
f 924 913 989
f 996 913 924
f 934 928 914
f 915 926 991
f 922 928 934
f 923 970 966
f 923 966 960
f 924 989 972
f 996 924 971
f 971 924 972
f 982 991 926
f 931 949 957
f 940 939 937
f 939 941 938
f 940 950 939
f 952 954 942
f 999 946 955
f 978 955 946
f 948 952 947
f 957 949 951
f 955 1002 973
f 978 1002 955
f 955 987 983
f 955 959 999
f 955 973 987
f 959 955 983
f 976 984 958
f 973 964 958
f 964 976 958
f 973 958 987
f 986 999 959
f 959 983 961
f 979 959 961
f 986 959 979
f 966 1000 960
f 983 987 961
f 974 991 962
f 962 982 975
f 991 982 962
f 995 974 962
f 997 994 963
f 963 986 979
f 994 990 963
f 993 963 992
f 990 986 963
f 997 963 993
f 1002 976 964
f 1002 964 973
f 1001 965 989
f 1000 966 970
f 967 997 985
f 994 997 967
f 975 971 988
f 971 972 988
f 982 971 975
f 980 985 993
f 992 980 993
f 985 997 993
