v 0.23134722 0.25042343 0.29602227
v -0.8003229 0.54314864 0.434455
v -0.21490724 0.17885502 -0.02067721
v -0.012411691 0.07503011 0.49801117
v 0.038193565 0.8865651 -0.27907798
v 0.50456804 0.15331572 0.44696358
v 0.31019357 0.14940289 0.5009336
v 0.10357909 0.6821178 -0.11723643
v -0.173538 0.8062537 0.02868576
v -0.8723241 0.048343636 0.091944546
v -0.2773841 0.8029295 -0.013668489
v -0.55648786 0.5975152 -0.14159217
v -0.7365531 0.73623276 -0.31498238
v -0.62233657 0.16279235 0.71596485
v 0.503206 -0.06513893 0.59764314
v -0.21941517 0.77624273 0.060550813
v 0.27457833 -0.7128656 0.744738
v -0.24659003 -0.9068496 0.5022301
v -0.38344193 0.6124941 0.16610542
v 0.00096473726 0.6276188 -0.020449392
v -0.4659652 0.6131166 0.15001398
v 0.071320616 -0.9462993 0.610483
v -0.2357185 0.7579528 -0.11624321
v -0.20801212 0.7615684 0.05925286
v -0.6082586 0.6651523 -0.1402015
v 0.9018931 -0.4499297 0.34355474
v 0.6466014 0.1037509 0.3625696
v -0.06857945 0.92115855 -0.065333284
v 0.12801285 -0.44729352 0.7751843
v -0.28194615 0.030824283 0.49625427
v -0.76533556 0.36288473 0.6782767
v 0.62324744 -0.84545994 0.5311296
v -0.56401044 0.66102004 -0.22403584
v -0.89346945 0.24844764 0.08908041
v -0.26771602 0.74159646 0.085091874
v -0.5717052 0.5554391 -0.026091326
v -0.72970355 0.27760544 0.7230913
v -0.7268585 0.50331736 -0.077232994
v -0.29706466 0.7514236 0.07272207
v -0.1319064 0.15007666 0.3549149
v 0.7406347 0.0183173 0.10184473
v -0.5011545 0.51528335 0.49847648
v -0.5880615 0.50496626 0.5470951
v -0.6368126 0.65065 -0.08002083
v -0.37721404 0.31835836 0.3466767
v -0.1153042 0.8823271 -0.027654087
v -0.5648448 0.54481745 0.49835718
v -0.76547796 0.7807988 -0.50625205
v -0.9126933 0.17214786 0.60840434
v 0.95805544 -0.73228943 0.37343237
v 0.098771505 0.22198863 0.08987961
v 0.1260666 0.17013766 0.44838646
v -0.7378774 0.5790664 0.3666326
v -0.17358889 -0.3846548 0.6255518
v -0.054090507 0.62127495 0.022090297
v -0.6162315 0.57020617 0.44211006
v 0.7509775 -0.41044745 0.5485397
v -0.1497518 0.8409529 0.0073232576
v 0.15683725 -0.2140894 0.7386882
v -0.4793556 -0.57541704 0.4993662
v 0.8437777 -0.19523755 0.08154452
v -0.7595579 0.6937461 -0.33427885
v -0.53903806 0.4609184 -0.041025553
v 0.414442 0.22528306 0.3694039
v -0.6979322 -0.5811577 0.19007412
v -0.3515494 0.24974057 0.03774546
v -0.79429686 0.56051147 0.38468415
v -0.13913026 -0.29349953 -0.30042088
v 0.4788895 -0.35694155 0.7338217
v -0.51429504 0.24061963 -0.058446433
v 0.28307056 -0.068164326 -0.24776839
v -0.85427517 -0.04483762 0.33619756
v -0.69949645 0.45967177 0.6096795
v -0.43396777 0.5989721 0.0087536145
v 0.17377886 0.24958245 0.18413039
v -0.35366067 -0.30608103 -0.23753053
v -0.34462383 0.68166757 0.12213538
v -0.70198625 0.6897198 -0.16404073
v -0.95805544 0.22586583 0.31075612
v -0.13630274 -0.1065737 0.5852372
v 0.7007554 -0.076231666 -0.1057327
v -0.42411166 -0.25168127 0.61986727
v -0.62566125 0.59346247 0.31978863
v -0.5281372 -0.045390815 -0.16391176
v -0.16863777 0.8539851 -0.007668905
v -0.7167136 0.7535956 -0.3131547
v -0.5377873 0.56620646 -0.21019599
v -0.6656117 0.35965326 0.6710224
v 0.56198 0.19527055 0.24395843
v 0.35406268 0.26110148 0.24229634
v -0.9517935 0.095975436 0.23582004
v -0.07007601 0.5852115 -0.013880384
v -0.8787039 -0.22997311 0.20351712
v 0.30042982 0.021814557 0.58760077
v -0.5275233 0.5854765 0.33990622
v -0.20044813 0.21252914 0.14613016
v -0.18854345 0.85378635 -0.022780366
v -0.3649219 0.19468117 0.43888018
v -0.48201692 0.58441687 0.21363801
v -0.036378734 0.16464466 0.015207488
v -0.09415359 0.91670847 -0.06223422
v -0.7442297 0.07184151 0.70997876
v -0.7608518 -0.09443331 -0.042439744
v -0.60713285 0.6039783 -0.04046103
v -0.52691275 -0.028458217 0.56902695
v -0.69407964 0.59121096 0.23187499
v -0.631078 0.59648216 0.015574202
v -0.7629227 -0.24621889 0.49366316
v 0.16299166 0.7651576 -0.25872204
v -0.6851002 0.58976746 0.33860826
v -0.5757181 0.55129373 0.014713392
v -0.45134386 0.5686301 0.25572744
v -0.92825717 0.22206272 0.43903413
v 0.009366397 0.2030415 0.2643592
v -0.6376735 0.7060231 -0.18635677
v -0.68025285 0.71767783 -0.19950813
v 0.09370769 -0.0456277 0.6026371
v -0.6515375 0.4076738 -0.087586485
v -0.57835364 0.6228641 -0.12511662
v -0.7634119 0.52235556 0.50724393
v -0.71622884 -0.036113773 0.55463773
v -0.40460584 0.6506766 0.13627996
v -0.46576893 0.1574641 0.5525018
v 0.08498972 0.0042615207 -0.20975678
v -0.29711765 0.6678144 0.11812247
v -0.5501572 0.53512275 -0.08064329
v -0.7406838 -0.38784486 -0.07826246
v -0.6879013 0.32779482 -0.05385736
v 0.024909856 0.7803484 -0.2363662
v -0.4534761 0.49750996 0.015733184
v -0.54722077 0.4436424 0.53915197
v -0.13334252 0.5579951 -0.020211041
v -0.4822487 0.45386437 0.47575638
v 0.020896945 0.7522712 -0.13075855
v -0.2844034 0.60637534 0.11058658
v -0.16926022 0.6621989 -0.14090344
v -0.31800345 0.6020844 0.13710108
v -0.11631076 0.80911434 -0.042540424
v -0.17506108 0.5692923 0.06354393
v 0.74203503 -0.16036089 0.4891886
v -0.2047806 0.6162555 0.09713072
v -0.21978605 0.6689135 0.04496265
v -0.010041033 0.9535135 -0.11849457
v -0.04072731 0.9201652 -0.088510245
v -0.31245416 0.5170448 0.14294168
v 0.06664164 0.64661074 -0.08668256
v -0.56467265 0.74741066 -0.49773607
v -0.26984826 0.50950897 0.10183235
v -0.18426567 0.7078376 0.0061842883
v 0.5119402 -0.6073779 0.7066189
v -0.24697591 0.4998011 0.06290824
v 0.123994306 -0.2480157 -0.4056252
v -0.105622835 0.66105986 0.013826002
v -0.6136721 0.41362906 0.6087359
v -0.46432295 0.52799094 0.43568006
v -0.27168918 0.58711874 0.1271813
v 0.038498178 0.9793525 -0.1852576
v -0.06624848 0.63761795 0.034830976
v -0.3716283 0.49856943 0.19100401
v -0.47172138 0.3406308 0.47946224
v -0.11713189 0.77640176 -0.055771157
v -0.20908488 0.6406641 0.06301419
v -0.040740598 0.8667257 -0.11352813
v 0.1064398 0.7255316 -0.1453137
v 0.04398119 0.9176754 -0.19806455
v -0.15244037 0.63567114 0.0707752
v -0.5786947 0.27800733 0.60853726
v -0.26900068 0.63955164 0.08853536
v 0.06302607 0.68550825 -0.080789044
v 0.045000985 0.65753686 -0.047135986
v 0.66665924 -0.40556502 -0.23565629
v -0.13331605 0.6172885 0.0670271
v 0.0725087 0.841774 -0.20536196
v -0.2584187 0.7002224 0.091290124
v 0.13645071 0.7247369 -0.17084809
v -0.12000583 0.7018248 -0.028885776
v -0.7540484 0.5050589 0.008554947
v -0.32851917 0.5493336 0.16092697
v -0.4139958 0.44204745 0.31531543
v -0.004001764 0.6111301 -0.0491888
v -0.92462873 0.42030966 0.34888312
v -0.21835569 0.58311903 0.099567644
v -0.44408613 0.439137 0.42191958
v 0.9261595 -0.5675695 0.07019267
v 0.13035852 0.79226804 -0.21793056
v -0.20338999 0.72723997 0.03795662
v -0.3359225 0.6315787 0.14502096
v -0.34200397 0.44349226 0.10606083
v -0.54134995 0.59833634 -0.19455479
v -0.10445741 0.8570179 -0.03279286
v 0.018062688 0.70732105 -0.0906161
v -0.56243443 0.6308371 -0.6225739
v 0.03657783 0.8614149 -0.18403915
v -0.5384495 0.7059305 -0.708554
v -0.021007057 0.82692754 -0.13618858
v -0.13630918 0.7274653 -0.034223095
v -0.017378192 0.6756283 -0.038726058
v 0.11119446 0.8913199 -0.25795382
v -0.048329398 0.779024 -0.108363025
v -0.027205247 0.65615964 -0.0005040175
v -0.7428307 0.6112492 -0.14549914
v 0.008911127 0.93881273 -0.14768435
v -0.38974607 0.5466186 0.1981956
v -0.7234945 0.5097209 -0.18136387
v 0.65241504 -0.7759863 -0.16147238
v 0.34617698 -0.99106264 -0.079225056
v 0.7576538 -0.9626912 0.11632013
v -0.8685385 0.0103025045 0.50820667
v -0.54634297 0.8648981 -0.72410226
v 0.13506003 0.90629876 -0.30259937
v -0.5426479 0.53914905 -0.2573446
v 0.1338417 0.7020633 -0.17222553
v -0.5441047 0.5514791 -0.34234437
v 0.15946881 0.8710432 -0.33271623
v -0.18291475 0.5369637 0.039929945
v 0.09359317 0.6646358 -0.13510253
v -0.3501466 0.32142606 0.18227796
v 0.15503198 0.8313378 -0.33431855
v 0.50064826 -0.11637779 -0.22813192
v -0.43098786 0.50760186 0.37367833
v -0.54597217 0.8031281 -0.6574321
v -0.843136 0.26743826 0.6842076
v -0.40892336 0.51183987 0.27278566
v -0.57435393 0.46784332 -0.2175266
v -0.5327811 0.84342957 -0.76131797
v -0.5481971 0.7410139 -0.5637441
v -0.12257118 -0.9283055 -0.20634696
v -0.49215865 -0.8606076 0.27906474
v 0.16679268 0.8135246 -0.31204233
v -0.5533358 0.62889016 -0.52716434
v -0.5385555 0.75706553 -0.65522027
v 0.15972039 0.8165575 -0.27878672
v -0.20797238 0.5184883 0.014713392
v -0.5375754 0.6425183 -0.30008283
v -0.7317058 0.5557039 -0.12914276
v -0.81406516 0.4349056 0.063173175
v -0.6642939 0.9212909 -0.6930717
v -0.796257 0.26270565 -0.009688649
v -0.5447934 0.69101775 -0.61609775
v -0.69858426 0.5138265 -0.3331748
v -0.39083868 0.42262176 0.24413235
v -0.53131104 0.8105049 -0.7299827
v -0.7010989 0.7003416 -0.46475852
v 0.15236993 0.7654357 -0.28619006
v -0.5432968 0.6916138 -0.49633217
v -0.8969924 0.3896045 0.48012522
v -0.7011387 0.5964689 -0.29162
v -0.53994614 0.602442 -0.40575674
v 0.15346922 0.7403251 -0.21471219
v -0.10820545 0.5829071 0.025917768
v 0.4306356 -0.249473 -0.33440673
v 0.13306025 0.70305645 -0.19989212
v -0.5428598 0.53208995 -0.15263769
v -0.69814557 0.8833072 -0.6723713
v -0.53610533 0.65147114 -0.40921345
v -0.91479456 0.5013974 0.24256103
v -0.67763066 0.8557862 -0.66732526
v -0.6675188 0.18282261 -0.06738095
v -0.55655414 0.7091223 -0.39396948
v -0.5337479 0.6002965 -0.30193698
v -0.56729496 0.9011998 -0.7361279
v -0.60631174 0.91697335 -0.70816994
v -0.5761684 0.8921542 -0.69842225
v -0.5705662 0.8141339 -0.610257
v -0.6501758 0.91677475 -0.6625311
v -0.7148991 0.54087067 0.4969402
v -0.54070103 0.5895953 0.28053343
v -0.4598465 0.56057775 0.377678
v -0.21174693 0.81319356 0.030222064
v -0.70019835 0.905663 -0.63103676
v -0.7648423 0.5811987 0.24223179
v -0.678306 0.5708815 0.4335676
v -0.6151587 0.87144053 -0.62548757
v -0.5070613 0.5725901 0.390975
v -0.7428969 0.55592906 0.4508643
v -0.7973828 0.57268274 0.3025582
v -0.67455804 0.6287843 -0.030144043
v 0.10040053 0.9723995 -0.2966925
v -0.63325 0.5841255 0.06337172
v -0.6947551 0.5814502 0.07280144
v -0.6211715 0.8331522 -0.5591353
v -0.5133787 0.54714835 0.4772596
v -0.68189514 0.888075 -0.5967878
v -0.7324739 0.8746588 -0.58233875
v -0.5831348 0.5617168 0.053796366
v -0.5886972 0.5848937 0.38627338
v -0.87246615 0.37674797 0.13629319
v -0.6548112 0.5855162 0.13315432
v -0.64805675 0.52903056 0.5279972
v 0.08050807 0.96874416 -0.25043118
v 0.053225473 1 -0.222897
v -0.8247183 0.5439168 0.14341839
v -0.8957971 0.42856 0.18887183
v -0.6157282 0.5914097 0.23076248
v -0.740566 0.5947869 -0.20958677
v -0.59938514 0.7975656 -0.5162513
v -0.63367385 0.80772376 -0.47499612
v -0.71651495 0.90109384 -0.6523199
v -0.026609246 0.9502952 -0.19568053
v -0.5344234 0.5871054 0.18869962
v -0.6727171 0.84109855 -0.51362896
v -0.6390376 0.5508832 0.4902122
v -0.68350595 0.45585594 -0.15347534
v -0.86414564 0.53052723 0.38437954
v -0.44171548 0.57929146 0.20872448
v 0.0052822623 0.9861864 -0.1574585
v -0.6565594 0.6605433 -0.08719907
v -0.657301 0.79300976 -0.39223462
v -0.43922558 0.5494528 0.33974722
v 0.5756925 0.1710357 0.083409935
v -0.71701825 0.7875664 -0.3937708
v -0.47645444 0.57706654 0.29759166
v -0.69952285 0.8220141 -0.46140787
v -0.59341204 0.5805496 0.13646528
v 0.42004082 0.23916356 0.084514976
v -0.8679467 0.5472145 0.24725126
v -0.5895978 0.74368906 -0.36303148
v -0.75394243 0.7582177 -0.40282965
v -0.7332553 0.57754326 0.14723264
v -0.71478 0.50189364 0.56053776
v -0.06132172 0.94347465 -0.13764541
v -0.6184167 0.7715677 -0.37717608
v -0.50714076 0.5925752 0.14659695
v -0.0373104 0.9577913 -0.11121039
v -0.8481469 0.5550418 0.31157723
v -0.55958694 0.6864486 -0.30149996
v -0.60015327 0.70569205 -0.23207512
v -0.62530357 0.73941123 -0.2756345
v -0.6816568 0.77038896 -0.31606832
v 0.24266256 0.23950382 0.055359125
v -0.41228735 0.551095 0.21289638
v -0.64988446 0.76258826 -0.30455935
v -0.9258792 0.28790897 0.21851185
v -0.5404759 0.5638888 0.4500962
v -0.42424664 0.5462477 0.2564294
v -0.16401562 0.8774667 -0.06664446
v -0.70456886 0.5960318 0.0073232576
v -0.8433791 0.5527108 0.2092808
v -0.2301958 0.6517626 -0.12197775
v -0.40427476 0.6944612 0.064855106
v -0.7184486 0.63943243 -0.09656265
v -0.8298355 0.4160296 0.5868651
v -0.89537495 0.49196723 0.3975506
v -0.83904165 0.48563668 0.49574816
v -0.7470026 0.8236431 -0.507656
v -0.76346487 0.48581538 0.56433874
v -0.7589884 0.8333906 -0.5755843
v -0.3282675 0.75102615 0.051452164
v 0.37399334 0.12341383 -0.11956348
v -0.7246203 0.69031584 -0.1969785
v -0.0016707905 0.9043915 -0.2461401
v -0.51908684 0.5852512 0.09909082
v -0.69920504 0.5083965 -0.39019504
v -0.730196 0.60754097 -0.077968016
v 0.08785851 0.835364 -0.3022946
v -0.18773702 0.0017571112 -0.18901575
v -0.7470556 0.7786002 -0.5293629
v -0.29803148 0.7690116 -0.0550294
v -0.74559873 0.8699838 -0.6234347
v -0.7198259 0.6332475 -0.3146779
v -0.6756175 0.534752 -0.5085168
v -0.7376523 0.55894876 0.011269905
v -0.64673233 0.75935674 -0.63605636
v -0.689974 0.571398 -0.35488662
v -0.7784306 0.5152701 0.049703963
v -0.717005 0.53667223 -0.1489425
v -0.34640056 -0.983019 0.019397752
v -0.9232933 0.4948876 0.3265297
v -0.24143994 0.8260137 -0.05863187
v -0.6808952 0.47051862 -0.23513451
v -0.47984493 0.6262547 0.09681288
v -0.74643314 0.59717095 -0.1781455
v -0.7626702 0.5559821 0.094508365
v -0.69151026 0.7579397 -0.5515333
v -0.7660342 0.7400205 -0.4285496
v -0.6144435 0.71313524 -0.69289947
v -0.15175164 0.8755462 -0.11229645
v -0.20688301 -0.6242106 -0.19540495
v -0.89509684 0.5324607 0.3077233
v -0.7398508 0.8250601 -0.5922716
v -0.7587235 0.6981696 -0.37981167
v -0.36222506 0.7050432 -0.025310008
v -0.51512855 -0.5832641 -0.09602213
v 0.5671881 0.044019252 -0.11265654
v -0.5334565 0.78614926 -0.7751843
v -0.59306777 0.7163403 -0.7349888
v -0.043045055 0.9081265 -0.20632872
v 0.06831036 0.946918 -0.30314222
v -0.37069532 0.12598439 -0.11450751
v -0.5856511 0.62356615 -0.69467425
v -0.74325454 0.67696583 -0.23318753
v -0.36143047 0.73374283 0.008237103
v -0.7368047 0.5565649 -0.078550786
v -0.6153309 0.60734224 -0.6732454
v -0.45273447 0.6491138 0.059915125
v -0.60065657 0.6478821 -0.71113646
v -0.7537173 0.6521599 -0.27616435
v -0.6237011 0.639843 -0.6762518
v -0.64221615 0.6343335 -0.6128
v -0.7603393 0.816478 -0.5240917
v -0.82009614 0.5195744 0.097488254
v -0.68806684 0.5406587 -0.43117195
v -0.70539 0.8038697 -0.5880734
v -0.71109813 0.56403434 -0.20959999
v -0.6258334 0.84284675 -0.7157056
v -0.733252 0.43912548 -0.028051421
v -0.6834712 0.62061274 -0.4100478
v -0.7251235 0.59784627 -0.24199478
v -0.6604399 0.6868459 -0.5590689
v -0.6630092 0.6063225 -0.51697963
v -0.6921063 0.65846395 -0.42566243
v -0.5439193 0.8470584 -0.7726283
v -0.716164 0.5370101 -0.21840726
v -0.8518552 0.47194898 0.12907514
v -0.87703204 0.5181705 0.17614426
v -0.7396124 0.5300504 -0.032236543
v -0.3950834 0.6920111 0.0064094122
v -0.6398985 0.575027 -0.62301093
v -0.74679065 0.72338605 -0.44538268
v -0.6591155 0.57318604 -0.56460494
v 0.03448527 0.9986756 -0.22648598
v 0.046669755 0.98314023 -0.26356918
v 0.07732951 0.9864911 -0.28670645
v 0.10687694 0.9599501 -0.32276985
v -0.55395824 0.56636536 0.08106573
v 0.1349939 0.9341376 -0.3296965
v -0.4728918 0.6082561 0.049664278
v -0.4954331 0.52820945 0.03297683
v 0.12075659 0.92391324 -0.3431922
v -0.52743053 0.55044615 0.054935336
v 0.100639 0.89604795 -0.3308089
v -0.5390852 0.513747 0.020103622
v -0.5056177 0.47612086 0.016673487
v 0.1767737 0.1681849 -0.07098514
v -0.6204299 0.90815294 -0.737267
v -0.44112077 0.41349164 0.02016805
v -0.61582094 0.9191189 -0.72898936
v -0.5795192 0.90722585 -0.74975586
v -0.55268687 0.88231385 -0.7581658
v -0.083531864 0.7722299 -0.19895181
v -0.028688578 0.7516885 -0.2076002
v 0.3308039 -0.58526134 -0.3941456
v -0.16330044 0.60160756 -0.104323536
v -0.2851318 0.6716286 -0.095225014
v -0.58676356 0.86307037 -0.75963604
v -0.17033298 0.8335495 -0.13462582
v -0.38476634 0.5823641 -0.027084664
v -0.012984299 -0.48227972 -0.4558273
v -0.52699345 0.7528937 -0.7422467
v -0.65899634 0.5313616 -0.55003655
v -0.31208333 0.60882556 -0.073173665
v -0.3812567 0.5097209 -0.006543286
v -0.07712178 0.81890166 -0.20383888
v -0.21193232 0.7019441 -0.13878436
v 0.019479817 0.7099434 -0.19152199
v -0.32253286 0.5718616 -0.054950032
v 0.14629099 0.8935447 -0.3495226
v -0.5689637 0.6484251 -0.7137588
v -0.033959635 0.6642517 -0.15039943
v -0.23668534 0.6052364 -0.098443255
v -0.55809045 0.7994596 -0.7716482
v -0.12833633 0.72652483 -0.17340419
v -0.15985696 0.7731041 -0.16291499
v -0.32397646 0.68760085 -0.066617884
v 0.0016799155 0.84005237 -0.24937169
v 0.057557512 -0.9727571 0.26105547
v 0.38756582 -1 0.33346215
v -0.6691147 0.49165598 -0.41706705
v -0.62661475 0.50900567 -0.48874336
v -0.58265793 0.58848286 -0.6187331
v -0.59833884 0.49300697 -0.3765404
v -0.54043615 0.69389164 -0.73157203
v -0.55605084 0.54256594 -0.38505638
v -0.29754144 0.4800146 0.013309492
v -0.6015969 0.5575448 -0.60854864
v 0.14312565 0.7309749 -0.2463123
v -0.54903144 0.6951102 -0.74497485
v 0.13029225 0.8041214 -0.3138433
v -0.5620901 0.71888316 -0.7543252
v -0.09176964 0.6104281 -0.10397924
v 0.03733269 0.6381875 -0.106243946
v -0.60142463 0.5413872 -0.5578108
v -0.37885955 0.46643943 0.017044365
v -0.13456097 0.5710139 -0.06002242
v -0.611318 0.57726514 -0.6416188
v 0.13751018 0.8608984 -0.34564233
v -0.6727171 0.50546944 -0.478347
v -0.56871206 0.49384132 -0.30132774
v -0.23811568 0.5372021 -0.045983788
v -0.5762081 0.5379174 -0.43755552
v -0.57095027 0.6205332 -0.6768743
v -0.6153309 0.45773825 -0.26733065
v -0.5753473 0.56433904 -0.49422646
v -0.03941619 0.6011044 -0.06228713
v 0.07372716 0.6838263 -0.17547023
v -0.30530244 0.52509713 -0.033613987
v -0.56353366 0.44968584 -0.12445117
v -0.09596799 0.670079 -0.15413418
v -0.63011116 0.4733793 -0.3389408
v -0.52545714 0.7751833 -0.7640594
v 0.09793715 0.74672186 -0.2483122
v -0.63734245 0.52615666 -0.5481824
f 90 1 64
f 1 52 7
f 7 64 1
f 75 114 1
f 1 114 52
f 90 75 1
f 67 304 2
f 2 344 120
f 67 2 275
f 275 2 120
f 2 304 344
f 3 96 100
f 66 96 3
f 3 100 356
f 3 356 389
f 66 3 389
f 4 40 80
f 117 4 80
f 52 4 117
f 4 52 40
f 388 5 351
f 5 431 355
f 465 5 355
f 5 388 431
f 351 5 465
f 27 6 15
f 6 7 15
f 6 64 7
f 64 6 27
f 15 7 94
f 94 7 117
f 117 7 52
f 169 8 164
f 216 8 146
f 212 164 8
f 216 212 8
f 8 169 146
f 24 9 269
f 9 138 190
f 138 9 186
f 24 186 9
f 190 58 9
f 9 58 269
f 93 10 103
f 258 103 10
f 238 258 10
f 10 34 238
f 91 10 72
f 72 10 93
f 10 91 34
f 369 11 97
f 11 369 358
f 392 348 11
f 97 11 348
f 392 11 358
f 33 119 12
f 119 104 12
f 104 36 12
f 189 12 126
f 189 33 12
f 12 36 126
f 350 13 391
f 13 86 318
f 86 13 350
f 318 391 13
f 102 14 37
f 14 102 121
f 105 14 121
f 123 14 105
f 123 167 14
f 37 14 88
f 14 167 88
f 27 15 140
f 69 15 59
f 59 15 94
f 140 15 69
f 174 16 35
f 269 39 16
f 174 24 16
f 16 24 269
f 39 35 16
f 32 17 22
f 32 150 17
f 22 17 29
f 69 29 17
f 150 69 17
f 228 18 60
f 18 29 54
f 29 18 22
f 60 18 54
f 466 18 367
f 228 367 18
f 22 18 466
f 203 19 331
f 19 77 122
f 19 187 77
f 203 187 19
f 19 122 305
f 305 331 19
f 146 20 180
f 180 20 92
f 146 170 20
f 170 200 20
f 20 200 158
f 20 158 55
f 55 92 20
f 21 99 305
f 122 21 305
f 21 323 99
f 371 323 21
f 21 340 371
f 21 348 340
f 21 122 348
f 32 22 467
f 467 22 466
f 454 23 463
f 454 444 23
f 358 446 23
f 464 358 23
f 444 464 23
f 463 23 446
f 186 24 174
f 25 104 119
f 25 44 104
f 33 25 119
f 327 25 33
f 327 115 25
f 115 44 25
f 50 184 26
f 50 26 57
f 57 26 140
f 26 61 140
f 61 26 184
f 61 27 140
f 61 41 27
f 89 64 27
f 41 89 27
f 28 144 324
f 28 101 190
f 324 101 28
f 28 190 144
f 29 59 54
f 69 59 29
f 40 30 80
f 40 98 30
f 54 30 82
f 80 30 54
f 105 82 30
f 105 30 123
f 123 30 98
f 37 88 31
f 31 88 73
f 222 31 342
f 31 73 342
f 222 37 31
f 50 32 207
f 207 32 467
f 50 57 32
f 32 57 150
f 234 33 189
f 326 33 234
f 326 317 33
f 317 327 33
f 34 236 238
f 287 236 34
f 34 91 333
f 333 287 34
f 125 35 77
f 35 39 77
f 174 35 125
f 36 104 111
f 126 36 63
f 36 111 63
f 102 37 222
f 303 38 204
f 118 38 303
f 118 406 38
f 406 177 38
f 38 177 416
f 204 38 366
f 366 38 235
f 38 393 235
f 38 416 393
f 39 122 77
f 39 269 348
f 39 348 122
f 45 98 40
f 96 45 40
f 114 96 40
f 114 40 52
f 61 81 41
f 41 384 310
f 41 81 384
f 41 310 89
f 131 133 42
f 43 42 282
f 131 42 43
f 282 42 155
f 42 133 155
f 154 131 43
f 282 47 43
f 289 73 43
f 47 289 43
f 154 43 73
f 44 307 104
f 115 307 44
f 217 45 96
f 217 241 45
f 98 45 160
f 160 45 183
f 179 183 45
f 241 179 45
f 58 190 46
f 190 101 46
f 85 58 46
f 97 46 101
f 97 85 46
f 334 56 47
f 334 47 282
f 56 302 47
f 302 289 47
f 357 48 347
f 419 48 357
f 375 400 48
f 419 375 48
f 400 347 48
f 208 49 113
f 113 49 246
f 342 246 49
f 222 342 49
f 222 49 208
f 184 50 207
f 51 330 434
f 51 434 100
f 51 75 330
f 100 114 51
f 75 51 114
f 271 276 53
f 110 53 272
f 271 53 110
f 53 275 272
f 53 276 67
f 53 67 275
f 54 82 60
f 59 80 54
f 172 55 158
f 92 55 250
f 250 55 172
f 110 272 56
f 334 286 56
f 286 110 56
f 56 272 302
f 57 69 150
f 57 140 69
f 58 85 269
f 94 117 59
f 59 117 80
f 60 82 108
f 228 60 65
f 65 60 108
f 184 81 61
f 381 62 318
f 381 397 62
f 62 391 318
f 397 391 62
f 432 63 111
f 432 433 63
f 433 436 63
f 70 118 63
f 70 63 436
f 63 118 497
f 253 126 63
f 253 63 497
f 90 64 89
f 65 108 93
f 367 228 65
f 367 65 378
f 383 378 65
f 383 65 127
f 65 93 127
f 66 217 96
f 217 66 188
f 66 389 70
f 436 66 70
f 436 188 66
f 276 325 67
f 325 304 67
f 76 356 68
f 68 124 152
f 68 356 124
f 76 68 378
f 378 68 448
f 448 68 152
f 389 84 70
f 84 258 70
f 70 258 118
f 124 71 152
f 71 349 219
f 219 251 71
f 71 251 152
f 71 124 349
f 108 72 93
f 72 113 91
f 108 121 72
f 121 208 72
f 72 208 113
f 88 154 73
f 346 73 320
f 342 73 346
f 289 320 73
f 417 382 74
f 427 417 74
f 74 428 427
f 74 447 130
f 130 428 74
f 382 464 74
f 447 74 464
f 75 90 330
f 76 84 356
f 127 76 383
f 76 127 84
f 383 76 378
f 187 125 77
f 116 86 78
f 78 341 277
f 277 116 78
f 341 78 350
f 78 86 350
f 79 333 91
f 113 79 91
f 79 113 181
f 79 181 333
f 171 81 184
f 81 171 219
f 384 81 219
f 105 108 82
f 83 110 286
f 294 83 267
f 106 110 83
f 267 83 95
f 294 106 83
f 95 83 286
f 103 84 127
f 84 103 258
f 356 84 389
f 85 97 269
f 329 86 116
f 329 311 86
f 86 311 318
f 87 189 253
f 497 211 87
f 234 189 87
f 497 87 253
f 211 260 87
f 260 234 87
f 88 167 154
f 315 90 89
f 315 89 310
f 330 90 315
f 92 132 494
f 250 132 92
f 92 494 180
f 127 93 103
f 312 267 95
f 95 286 274
f 312 95 274
f 96 114 100
f 336 369 97
f 321 336 97
f 321 97 101
f 97 348 269
f 123 98 160
f 99 312 112
f 267 312 99
f 300 267 99
f 305 99 112
f 323 300 99
f 100 124 356
f 100 434 124
f 324 321 101
f 102 222 121
f 307 107 104
f 104 107 111
f 105 121 108
f 319 271 106
f 319 106 288
f 106 294 288
f 106 271 110
f 107 307 277
f 107 277 279
f 111 107 279
f 109 476 244
f 229 109 244
f 249 476 109
f 229 232 109
f 109 232 249
f 111 279 285
f 425 111 285
f 432 111 425
f 335 112 309
f 112 312 309
f 305 112 335
f 113 246 181
f 332 329 115
f 115 329 116
f 328 332 115
f 328 115 327
f 115 116 307
f 116 277 307
f 258 128 118
f 303 497 118
f 128 406 118
f 344 346 120
f 275 120 266
f 266 120 346
f 121 222 208
f 160 167 123
f 434 349 124
f 137 125 187
f 174 125 137
f 253 189 126
f 258 238 128
f 238 406 128
f 129 355 501
f 455 129 501
f 441 129 455
f 465 355 129
f 440 129 441
f 440 465 129
f 130 452 483
f 436 433 130
f 130 483 436
f 130 447 452
f 130 433 428
f 160 131 167
f 167 131 154
f 160 133 131
f 233 132 250
f 132 474 484
f 233 474 132
f 132 484 494
f 183 133 160
f 133 183 155
f 134 185 173
f 164 134 191
f 134 173 199
f 134 199 176
f 134 176 191
f 185 134 164
f 156 135 137
f 135 168 137
f 141 135 156
f 162 168 135
f 141 162 135
f 136 462 498
f 460 136 443
f 460 339 136
f 339 454 136
f 454 462 136
f 498 443 136
f 178 137 187
f 156 137 178
f 168 174 137
f 163 138 161
f 163 190 138
f 161 138 186
f 250 139 215
f 139 250 172
f 148 139 182
f 215 139 148
f 139 172 141
f 182 139 141
f 182 141 156
f 166 162 141
f 172 166 141
f 142 168 162
f 142 174 168
f 142 186 174
f 142 149 186
f 176 142 162
f 176 149 142
f 202 157 143
f 202 143 144
f 157 306 143
f 144 143 324
f 324 143 306
f 190 163 144
f 202 144 163
f 145 159 188
f 145 178 159
f 188 148 145
f 178 145 156
f 182 156 145
f 182 145 148
f 481 216 146
f 146 180 481
f 169 170 146
f 264 296 147
f 259 147 317
f 147 296 317
f 245 147 259
f 226 147 245
f 226 264 147
f 188 151 148
f 215 148 151
f 176 196 149
f 196 161 149
f 161 186 149
f 151 233 215
f 233 151 188
f 442 448 152
f 152 251 442
f 200 153 158
f 153 176 162
f 153 162 166
f 191 176 153
f 158 153 166
f 197 191 153
f 197 153 200
f 220 155 183
f 268 155 309
f 155 274 282
f 268 274 155
f 309 155 220
f 157 290 291
f 290 157 165
f 165 157 202
f 157 291 306
f 172 158 166
f 188 159 241
f 203 223 159
f 159 223 241
f 178 203 159
f 199 161 196
f 195 163 161
f 199 195 161
f 195 165 163
f 165 202 163
f 164 175 185
f 212 175 164
f 164 191 169
f 193 165 195
f 193 173 165
f 173 198 165
f 165 198 290
f 169 197 170
f 169 191 197
f 170 197 200
f 205 171 184
f 205 442 171
f 442 251 171
f 219 171 251
f 173 193 195
f 173 195 199
f 185 198 173
f 249 175 212
f 185 175 249
f 199 196 176
f 362 416 177
f 236 177 406
f 365 177 236
f 365 362 177
f 178 187 203
f 241 223 179
f 179 223 220
f 179 220 183
f 180 494 481
f 333 181 256
f 181 343 368
f 246 343 181
f 181 368 256
f 207 205 184
f 185 232 210
f 232 185 249
f 210 198 185
f 188 474 233
f 188 241 217
f 436 483 188
f 188 483 474
f 192 230 470
f 192 239 230
f 470 491 192
f 192 491 239
f 491 458 194
f 458 472 194
f 491 194 239
f 239 194 231
f 472 449 194
f 194 449 231
f 290 198 210
f 341 391 201
f 354 341 201
f 372 201 397
f 397 201 391
f 201 372 235
f 235 393 201
f 393 354 201
f 331 223 203
f 240 370 204
f 204 413 240
f 370 303 204
f 366 413 204
f 207 206 205
f 206 442 205
f 206 227 442
f 207 467 206
f 467 466 206
f 206 466 227
f 242 209 221
f 225 209 242
f 261 263 209
f 263 264 209
f 209 439 261
f 264 221 209
f 225 439 209
f 210 426 278
f 214 210 232
f 457 426 210
f 278 290 210
f 214 457 210
f 211 497 224
f 213 260 211
f 211 488 213
f 211 224 488
f 252 212 216
f 249 212 252
f 213 248 260
f 488 473 213
f 248 213 473
f 214 218 457
f 214 232 229
f 229 218 214
f 233 250 215
f 481 495 216
f 252 216 495
f 478 486 218
f 478 218 244
f 486 457 218
f 218 229 244
f 384 219 349
f 220 223 309
f 242 221 231
f 221 226 231
f 221 264 226
f 309 223 335
f 223 331 335
f 497 303 224
f 224 492 488
f 303 492 224
f 385 225 500
f 412 439 225
f 225 385 412
f 242 500 225
f 231 226 245
f 227 367 378
f 378 448 227
f 227 448 442
f 466 367 227
f 493 470 230
f 230 248 493
f 230 255 248
f 245 255 230
f 239 245 230
f 449 242 231
f 239 231 245
f 255 259 234
f 259 326 234
f 260 255 234
f 366 235 295
f 295 235 372
f 414 236 287
f 414 401 236
f 236 401 365
f 236 406 238
f 237 270 265
f 298 270 237
f 237 437 435
f 437 237 262
f 237 435 254
f 265 262 237
f 237 254 298
f 240 499 370
f 499 240 468
f 240 353 468
f 402 353 240
f 240 364 402
f 413 364 240
f 242 449 500
f 409 243 363
f 363 243 374
f 409 411 243
f 243 419 374
f 360 419 243
f 411 360 243
f 501 244 476
f 501 478 244
f 245 259 255
f 246 344 343
f 342 344 246
f 247 360 411
f 407 247 411
f 364 247 407
f 364 404 247
f 247 408 360
f 404 408 247
f 493 248 473
f 260 248 255
f 249 252 476
f 476 252 495
f 405 257 254
f 359 298 254
f 257 403 254
f 380 359 254
f 403 380 254
f 254 435 405
f 333 256 293
f 256 415 293
f 316 256 379
f 256 338 415
f 338 256 316
f 256 368 379
f 405 363 257
f 363 374 257
f 257 374 403
f 259 317 326
f 261 262 263
f 438 262 261
f 439 438 261
f 265 273 262
f 262 273 263
f 262 438 437
f 263 273 264
f 281 296 264
f 273 281 264
f 265 283 273
f 265 270 283
f 272 275 266
f 266 346 320
f 272 266 302
f 302 266 289
f 289 266 320
f 300 294 267
f 309 312 268
f 312 274 268
f 270 298 284
f 270 284 283
f 338 271 319
f 271 338 276
f 283 301 273
f 301 281 273
f 274 286 334
f 274 334 282
f 338 316 276
f 316 325 276
f 277 337 280
f 279 277 280
f 337 277 341
f 424 278 426
f 278 423 290
f 424 423 278
f 279 280 288
f 279 288 314
f 279 314 285
f 373 319 280
f 280 319 288
f 337 362 280
f 280 362 373
f 301 297 281
f 281 297 296
f 283 313 301
f 283 284 313
f 284 345 313
f 298 359 284
f 284 400 345
f 347 400 284
f 284 359 347
f 314 425 285
f 287 293 414
f 333 293 287
f 288 294 314
f 291 290 423
f 422 291 423
f 421 306 291
f 421 291 422
f 292 373 401
f 292 338 373
f 292 415 338
f 401 415 292
f 293 415 414
f 314 294 300
f 408 295 397
f 295 372 397
f 404 295 408
f 366 295 404
f 296 297 317
f 317 297 322
f 297 301 308
f 297 308 322
f 299 422 351
f 387 299 351
f 387 446 299
f 377 321 299
f 377 299 446
f 299 321 306
f 421 422 299
f 299 306 421
f 425 314 300
f 425 300 352
f 352 300 323
f 301 313 308
f 303 370 492
f 343 344 304
f 343 304 379
f 325 379 304
f 305 335 331
f 321 324 306
f 322 308 332
f 308 329 332
f 313 329 308
f 310 349 315
f 310 384 349
f 318 311 313
f 313 311 329
f 313 345 318
f 330 315 349
f 325 316 379
f 322 328 317
f 328 327 317
f 345 400 318
f 375 318 400
f 381 318 375
f 338 319 373
f 377 336 321
f 332 328 322
f 371 352 323
f 330 349 434
f 369 336 377
f 337 354 362
f 354 337 341
f 451 339 460
f 444 339 451
f 444 454 339
f 395 340 392
f 371 340 395
f 340 348 392
f 391 341 350
f 344 342 346
f 368 343 379
f 380 347 359
f 380 357 347
f 388 351 422
f 453 387 351
f 465 453 351
f 352 371 427
f 425 352 430
f 352 427 430
f 487 353 361
f 468 353 487
f 353 402 361
f 416 362 354
f 393 416 354
f 486 478 355
f 355 431 486
f 478 501 355
f 403 357 380
f 374 357 403
f 374 419 357
f 464 382 358
f 369 446 358
f 392 358 382
f 360 381 419
f 360 397 381
f 360 408 397
f 487 361 450
f 410 420 361
f 402 410 361
f 361 420 450
f 373 362 365
f 376 363 405
f 376 409 363
f 364 410 402
f 364 407 410
f 413 404 364
f 401 373 365
f 413 366 404
f 369 377 446
f 499 492 370
f 371 395 427
f 419 381 375
f 405 386 376
f 399 409 376
f 398 399 376
f 398 376 396
f 386 396 376
f 417 392 382
f 385 500 479
f 479 461 385
f 385 461 412
f 396 386 479
f 461 479 386
f 386 445 461
f 405 445 386
f 463 387 453
f 463 446 387
f 424 429 388
f 422 423 388
f 429 431 388
f 423 424 388
f 394 390 485
f 390 458 491
f 491 485 390
f 394 396 390
f 396 458 390
f 395 392 417
f 394 485 418
f 398 394 418
f 398 396 394
f 395 417 427
f 396 479 458
f 399 398 418
f 410 399 420
f 399 410 409
f 399 418 420
f 415 401 414
f 405 435 445
f 410 407 409
f 407 411 409
f 439 412 445
f 412 461 445
f 450 418 502
f 485 502 418
f 450 420 418
f 429 424 426
f 430 432 425
f 426 457 429
f 427 428 430
f 428 433 430
f 457 486 429
f 486 431 429
f 430 433 432
f 438 445 435
f 435 437 438
f 445 438 439
f 463 440 462
f 440 463 453
f 462 440 441
f 453 465 440
f 462 441 498
f 498 441 455
f 489 443 480
f 489 460 443
f 443 498 480
f 447 464 444
f 447 444 451
f 447 451 456
f 447 456 452
f 500 449 472
f 450 502 487
f 456 451 460
f 452 496 483
f 496 452 456
f 462 454 463
f 455 501 495
f 459 455 495
f 498 455 459
f 456 460 496
f 458 479 477
f 458 477 472
f 459 495 481
f 498 459 480
f 480 459 481
f 489 496 460
f 499 468 469
f 487 469 468
f 469 502 482
f 487 502 469
f 469 493 490
f 469 471 499
f 469 482 493
f 471 469 490
f 485 491 470
f 482 475 470
f 475 485 470
f 482 470 493
f 492 499 471
f 471 490 473
f 488 471 473
f 492 471 488
f 477 500 472
f 490 493 473
f 483 496 474
f 474 489 484
f 496 489 474
f 502 485 475
f 502 475 482
f 501 476 495
f 500 477 479
f 484 480 494
f 480 481 494
f 489 480 484
